<svg width="128" height="127" viewBox="0 0 128 127" fill="none" xmlns="http://www.w3.org/2000/svg">
<path fill-rule="evenodd" clip-rule="evenodd" d="M47.5667 14C46.4439 14 45.3672 14.446 44.5732 15.2399C43.7793 16.0338 43.3333 17.1106 43.3333 18.2333H24.2833C19.549 18.2255 14.9252 19.6642 11.0311 22.3569C7.13705 25.0495 4.15858 28.8676 2.49451 33.2999C0.830448 37.7322 0.560226 42.5671 1.72003 47.1572C2.87983 51.7473 5.4143 55.8736 8.98407 58.9834C6.55482 60.4957 4.54842 62.5989 3.15223 65.0966C1.75603 67.5944 1.01557 70.4052 1 73.2667C1 82.58 8.62 90.2 17.9333 90.2H85.6667C94.98 90.2 102.6 82.58 102.6 73.2667C102.6 69.1349 101.025 65.3927 98.536 62.4547L116.968 70.6081C117.733 70.9578 118.559 71.1522 119.399 71.1799C120.24 71.2076 121.077 71.0681 121.863 70.7696C122.649 70.471 123.368 70.0194 123.979 69.4407C124.589 68.8621 125.078 68.1681 125.417 67.399C125.757 66.6298 125.941 65.8008 125.958 64.9602C125.974 64.1195 125.824 63.2839 125.515 62.5018C125.207 61.7197 124.746 61.0066 124.159 60.4041C123.573 59.8016 122.872 59.3216 122.099 58.9919L106.774 52.2016L120.575 49.8987C121.398 49.7619 122.185 49.4644 122.893 49.0232C123.601 48.582 124.215 48.0057 124.7 47.3272C125.185 46.6487 125.532 45.8813 125.72 45.0688C125.909 44.2564 125.935 43.4147 125.799 42.5919C125.662 41.7692 125.364 40.9814 124.923 40.2736C124.482 39.5658 123.906 38.9518 123.227 38.4667C122.549 37.9816 121.781 37.6349 120.969 37.4464C120.156 37.2579 119.315 37.2312 118.492 37.368L100.458 40.3737C96.3177 30.5269 85.9884 20.6379 68.7333 18.6567V18.2333C68.7333 17.1106 68.2873 16.0338 67.4934 15.2399C66.6995 14.446 65.6228 14 64.5 14H47.5667ZM51.8 22.4667H60.2667V81.7333H51.8V22.4667ZM34.8667 64.8H43.3333V81.7333H30.6333H17.9333C13.1666 81.7333 9.46667 78.0334 9.46667 73.2667C9.46667 68.4999 13.1666 64.8 17.9333 64.8H19.4065H34.8667ZM93.0695 69.0245C92.7281 68.1423 92.3673 67.2101 91.7143 66.6143C91.7143 66.6143 89.9 64.8 88.0857 64.8H77.2H68.7333V81.7333H85.6667C90.4334 81.7333 94.1333 78.0334 94.1333 73.2667C94.1301 72.0934 93.8831 70.9337 93.408 69.8609C93.2908 69.5965 93.1812 69.3132 93.0695 69.0245ZM9.47273 33.2999C9.47273 28.5332 13.1727 24.8333 17.9394 24.8333H19.4126H34.8727H43.3394L43.3394 36.1001L43.3394 41.7666L43.3394 53.0334H30.6394H17.9394C13.1727 53.0334 9.47273 49.3335 9.47273 44.5668L9.47273 33.2999Z" fill="black"/>
<path d="M43.3394 41.7666H30.6394H17.9394C15.3599 41.7666 13.0927 40.6831 11.5553 38.9333C10.2517 40.417 9.47273 42.3796 9.47273 44.5668C9.47273 49.3335 13.1727 53.0334 17.9394 53.0334H30.6394H43.3394L43.3394 41.7666Z" fill="black"/>
<path d="M9.47273 33.2999L9.47273 44.5668C9.47273 42.3796 10.2517 40.417 11.5553 38.9333C10.2517 37.4497 9.47273 35.4871 9.47273 33.2999Z" fill="black"/>
<path d="M43.3394 41.7666L43.3394 36.1001H34.8728H19.4126H17.9394C15.3599 36.1001 13.0927 37.1836 11.5553 38.9333C13.0927 40.6831 15.3599 41.7666 17.9394 41.7666H30.6394H43.3394Z" fill="black"/>
<path d="M43.3394 24.8333H34.8727H19.4126H17.9394C13.1727 24.8333 9.47273 28.5332 9.47273 33.2999C9.47273 35.4871 10.2517 37.4497 11.5553 38.9333C13.0927 37.1836 15.3599 36.1001 17.9394 36.1001H19.4126H34.8728H43.3394L43.3394 24.8333Z" fill="black"/>
</svg>
