<svg width="114" height="114" viewBox="0 0 114 114" fill="none" xmlns="http://www.w3.org/2000/svg">
<path d="M38 96.1876C30.2417 93.1792 23.5521 88.7269 17.9313 82.8306C12.3104 76.9342 9.5 69.9074 9.5 61.7501C9.5 60.4042 9.956 59.2769 10.868 58.3681C11.78 57.4592 12.9073 57.0032 14.25 57.0001H19V23.2751C19 22.0876 19.3958 21.0584 20.1875 20.1876C20.9792 19.3167 21.9688 18.8021 23.1562 18.6438L100.581 9.97507C101.69 9.81673 102.621 10.0938 103.374 10.8063C104.128 11.5188 104.503 12.4292 104.5 13.5376C104.5 14.4084 104.183 15.1795 103.55 15.8508C102.917 16.5221 102.165 16.899 101.294 16.9813L49.875 22.8001V30.8751H100.938C101.967 30.8751 102.818 31.2107 103.493 31.8821C104.168 32.5534 104.503 33.4052 104.5 34.4376C104.497 35.4699 104.16 36.3217 103.488 36.9931C102.817 37.6644 101.967 38.0001 100.938 38.0001H49.875V57.0001H99.75C101.096 57.0001 102.225 57.4561 103.137 58.3681C104.049 59.2801 104.503 60.4074 104.5 61.7501C104.5 69.9042 101.69 76.9311 96.0687 82.8306C90.4479 88.7301 83.7583 93.1824 76 96.1876V99.7501C76 101.096 75.544 102.225 74.632 103.137C73.72 104.049 72.5927 104.503 71.25 104.5H42.75C41.4042 104.5 40.2768 104.044 39.368 103.132C38.4592 102.22 38.0032 101.093 38 99.7501V96.1876ZM38 30.8751H42.75V23.6313L38 24.1063V30.8751ZM26.125 30.8751H30.875V24.9376L26.125 25.4126V30.8751ZM38 57.0001H42.75V38.0001H38V57.0001ZM26.125 57.0001H30.875V38.0001H26.125V57.0001Z" fill="black"/>
</svg>
