<svg width="122" height="122" viewBox="0 0 122 122" fill="none" xmlns="http://www.w3.org/2000/svg">
<path d="M61.3555 44.2759C69.7778 44.2759 76.6055 40.3841 76.6055 35.5834C76.6055 30.7826 69.7778 26.8909 61.3555 26.8909C52.9331 26.8909 46.1055 30.7826 46.1055 35.5834C46.1055 40.3841 52.9331 44.2759 61.3555 44.2759Z" fill="#C32F33"/>
<path d="M61.3561 111.833C84.1295 111.833 102.023 100.65 102.023 86.4167V35.5834C102.023 21.3501 84.1295 10.1667 61.3561 10.1667C38.5828 10.1667 20.6895 21.3501 20.6895 35.5834V86.4167C20.6895 100.65 38.532 111.833 61.3561 111.833ZM61.3561 20.3334C79.3003 20.3334 91.8561 28.3651 91.8561 35.5834C91.7139 37.1519 91.2093 38.6658 90.382 40.0059C86.9253 45.0892 77.5211 50.1726 64.9653 50.7826H57.8995C45.1403 49.9692 35.5836 45.1909 32.2795 39.8534C31.57 38.6648 31.0874 37.3548 30.8561 35.9901V35.5834C30.8561 28.3651 43.3611 20.3334 61.3561 20.3334Z" fill="black"/>
</svg>
