<svg width="79" height="61" viewBox="0 0 79 61" fill="none" xmlns="http://www.w3.org/2000/svg">
<path fill-rule="evenodd" clip-rule="evenodd" d="M66.5502 32.56C66.5002 32.38 66.4602 32.15 66.4002 32.06C66.3402 31.96 66.3302 31.84 66.3502 31.51C66.3602 31.34 66.3802 31.18 66.3802 30.97C66.3802 30.7 66.3602 30.39 66.3402 30.09C66.2802 29.91 66.2102 29.68 66.1602 29.58C66.1102 29.5 66.0902 29.64 66.0402 29.55C66.0202 29.51 65.9502 29.18 65.9002 28.97C65.8802 28.86 65.8502 28.63 65.8602 28.62C65.8902 28.57 65.9402 28.61 65.9702 28.57C65.9902 28.54 66.0002 28.44 66.0102 28.38C65.9902 28.29 65.9602 28.2 65.9302 28.11C65.9002 28.03 65.8802 27.97 65.8602 27.93C65.7702 27.72 65.6802 27.59 65.5802 27.35C65.3802 26.86 65.1802 26.32 64.9402 25.78C64.8102 25.48 64.6402 25.1 64.7702 25.08C64.6902 24.46 64.6402 23.99 64.6102 23.56C64.5202 23.32 64.4402 23.08 64.3502 22.83C64.2602 22.58 64.1602 22.33 64.0602 22.08C64.1002 22.37 64.1402 22.67 64.1802 22.96C64.2102 23.26 64.2402 23.56 64.2802 23.87C64.2902 24 64.2402 23.97 64.2202 24.04C64.1902 24.13 64.3002 24.63 64.0602 24.03C64.0302 23.96 63.9902 23.78 63.9802 23.71C63.9702 23.6 64.0002 23.59 63.9802 23.47C63.8302 22.79 63.8402 22.55 63.6702 21.87C63.5402 21.36 63.6302 21.21 63.5802 20.85C63.5802 20.83 63.5802 20.8 63.5702 20.77C63.5102 20.63 63.4602 20.49 63.4002 20.35C63.2402 19.94 63.0902 19.53 62.9102 19.12C63.0302 19.68 63.1002 20.25 63.2702 20.96C63.2802 21.03 63.2402 20.99 63.2202 21C63.1702 20.87 63.1002 20.73 63.0602 20.61C62.9402 20.29 62.8302 19.97 62.7102 19.65C62.5802 19.33 62.4502 19.01 62.3202 18.7L62.1202 18.22L61.9102 17.75C61.7702 17.44 61.6202 17.13 61.4802 16.82C60.8802 15.59 60.2602 14.39 59.6202 13.28C59.4302 12.95 59.2302 12.6 59.0002 12.26C58.7602 11.91 58.5202 11.56 58.2802 11.21C57.7702 10.52 57.2702 9.84 56.8202 9.25C56.7102 9.1 56.5002 8.85002 56.3202 8.68002C55.9802 8.37002 55.6502 8.06 55.3102 7.75C54.9702 7.45 54.6202 7.14 54.2902 6.81C54.2202 6.73 53.8902 6.50001 53.8802 6.51001C53.8402 6.63001 53.1402 6.05 53.0002 5.91C52.3902 5.33 51.9302 5.08 51.6502 5C51.4202 4.95 51.2202 4.82001 50.8702 4.54001C50.3402 4.11001 49.8402 3.74 49.2102 3.31C48.9302 3.14 48.5402 2.9 47.9402 2.63C47.5702 2.48 47.1302 2.29 46.7202 2.09C46.3102 1.89 45.9102 1.71002 45.6302 1.52002C45.5602 1.48002 45.4302 1.41 45.2802 1.34C45.1302 1.28 44.9602 1.21002 44.8102 1.15002C44.6102 1.07002 44.1602 0.950022 44.1602 0.960022C44.1102 1.13002 43.0202 0.960018 44.1802 1.55002C44.5202 1.72002 44.6402 1.89002 43.9702 1.71002C43.1002 1.49002 43.2302 1.66 43.5902 1.81C44.2402 2.13 44.1502 2.20002 44.1202 2.30002C44.0902 2.38002 43.8502 2.29001 43.3402 2.10001C42.4702 1.77001 41.5902 1.46002 40.5402 1.24002C40.2702 1.19002 39.9502 1.12 39.7302 1.06C38.0402 0.599998 36.1202 0.320016 34.5102 0.110016C33.9602 0.0300159 33.4502 0.01 32.9502 0C32.4502 0 31.9502 0.0400171 31.4302 0.0800171C31.2402 0.100017 30.9402 0.119995 30.7202 0.119995C30.2802 0.119995 29.8802 0.170011 29.4902 0.230011C29.1002 0.290011 28.7102 0.350024 28.3002 0.400024C28.2702 0.400024 28.1702 0.440002 28.1802 0.440002C28.6602 0.530002 27.4202 0.780004 27.4002 0.910004C27.4002 0.970004 27.3402 1.02 26.9002 1.03C26.6402 1.03 26.3602 1.01001 25.9302 1.14001C25.7502 1.20001 25.8202 1.25002 25.8002 1.30002C25.7902 1.33002 25.8002 1.36 25.9502 1.34C26.1402 1.34 26.1802 1.37002 26.1802 1.40002C26.1802 1.40002 26.1402 1.40001 26.0902 1.42001C26.0402 1.43001 25.9702 1.45002 25.9302 1.46002C25.8902 1.44002 25.8302 1.43 25.8202 1.41C25.8202 1.41 25.9202 1.37 25.9402 1.34C25.6602 1.4 25.4102 1.43001 25.4102 1.42001C25.3802 1.36001 25.1002 1.40002 24.7702 1.49002C24.6102 1.54002 24.6002 1.62002 24.5002 1.65002C24.2502 1.71002 23.9802 1.75 23.7102 1.81C23.6302 1.83 23.4402 1.91 23.4302 1.94C23.4002 2 23.4702 2.03002 23.4402 2.08002C23.4202 2.11002 23.2902 2.18001 23.2102 2.23001C23.1602 2.22001 23.1202 2.2 23.0602 2.19C23.0102 2.18 22.9502 2.17 22.8902 2.16C22.7602 2.21 22.5802 2.28001 22.5002 2.32001C22.3802 2.38001 22.3702 2.43002 22.2402 2.49002C22.0002 2.61002 21.7602 2.75001 21.2702 2.82001C21.1502 2.84001 20.6802 3.02002 20.5602 3.05002C20.0402 3.15002 19.7002 3.30001 19.3702 3.51001C19.1202 3.66001 18.8302 3.8 18.4802 3.88C17.8902 4.02 17.7402 4.29001 17.2402 4.45001C16.8502 4.59001 16.4502 4.74 16.0602 4.88C16.0202 4.92 15.9802 4.95 15.9302 5C15.8702 5.05 15.8002 5.11 15.7302 5.16C14.6302 5.56 14.9902 5.55 14.9102 5.69C14.8202 5.84 14.5602 6.08 14.4502 6.25C14.3702 6.38 14.2402 6.50001 13.7302 6.76001C13.6402 6.81001 13.4602 6.93 13.4602 6.94C13.4802 7.03 13.2202 7.30002 13.8902 6.96002C13.9302 6.93002 13.9602 6.91 13.9502 6.94C14.0802 6.84 14.1602 6.81001 14.1502 6.82001C14.1202 6.85001 14.0602 6.9 14.0102 6.94C13.9802 6.95 13.9502 6.96001 13.9202 6.98001C13.7402 7.20001 13.3702 7.41002 13.2302 7.43002C13.0402 7.45002 13.1302 7.29002 13.0502 7.24002C13.0102 7.21002 12.8902 7.24 12.7402 7.28C12.6602 7.3 12.3802 7.40002 12.3302 7.52002C12.2802 7.61002 12.2102 7.70001 11.8802 7.89001C11.7602 7.96001 11.7002 7.94 11.6302 7.94C11.5902 7.94 11.6302 7.89002 11.5902 7.90002C11.5002 7.93002 11.3602 7.98 11.2402 8.03C11.1402 8.13 10.9502 8.28001 10.9502 8.32001C10.9202 8.47001 11.2302 8.4 10.8102 8.81C10.5602 9.05 10.2302 9.41 10.3602 9.38C10.6002 9.33 10.8902 9.2 10.4202 9.63C11.2302 9.2 10.7102 9.72001 10.6202 9.92001C10.5602 10.05 10.4802 10.16 10.3102 10.3C10.1402 10.44 9.87021 10.61 9.45021 10.9C9.47021 10.92 9.44021 11.01 9.51021 10.96C9.93021 10.7 9.81019 10.85 9.53019 11.1C9.24019 11.35 8.87021 11.63 8.55021 11.92C8.57021 11.85 8.5802 11.78 8.6002 11.71C8.6002 11.7 8.60021 11.67 8.58021 11.69C8.46021 11.76 8.33019 11.84 8.21019 11.91C8.14019 12 8.03019 12.1 7.99019 12.16C7.93019 12.26 7.91019 12.33 7.87019 12.41C7.74019 12.51 7.56019 12.58 7.49019 12.73C7.35019 13.02 7.29019 13.26 7.24019 13.48C7.24019 13.52 7.46021 13.36 7.58021 13.29C7.64021 13.22 7.70018 13.14 7.77018 13.07C7.97018 12.84 8.15019 12.58 8.37019 12.4C8.77019 12.07 8.58021 12.34 8.64021 12.35C8.74021 12.37 8.67019 12.54 9.06019 12.3C8.74019 12.69 8.90019 12.66 9.21019 12.54C9.46019 12.44 9.30021 12.75 9.58021 12.63C9.89021 12.48 9.5502 12.8 9.4402 12.9C9.2202 13.11 8.91021 13.33 8.67021 13.52C8.29021 13.82 8.04019 14.02 7.84019 14.2C7.64019 14.39 7.49019 14.57 7.28019 14.83C7.09019 15.06 6.91019 15.27 6.71019 15.49C6.51019 15.7 6.2902 15.91 6.0402 16.13C5.9702 16.2 5.83019 16.35 5.81019 16.39C5.76019 16.47 5.7702 16.51 5.7502 16.56C5.6902 16.6 5.61019 16.65 5.56019 16.68C5.42019 16.74 5.31021 16.78 5.17021 16.84C5.13021 16.86 5.06021 16.92 5.01021 16.96C4.98021 17.01 4.9302 17.1 4.9402 17.12C4.9802 17.18 5.04021 17.21 5.08021 17.27C5.08021 17.27 5.0102 17.38 4.9702 17.45C4.9702 17.45 4.8902 17.53 4.8802 17.53C4.8502 17.53 4.8502 17.51 4.8202 17.52C4.7002 17.55 4.87021 17.2 4.51021 17.59C4.37021 17.75 4.7102 17.58 4.3502 18.07C4.3102 18.13 4.4002 18.1 4.4102 18.13C4.4302 18.19 4.44021 18.27 4.45021 18.35C4.37021 18.38 4.2802 18.4 4.1902 18.43C4.1402 18.45 4.07019 18.46 4.03019 18.52C3.74019 18.87 3.5402 19.11 3.8202 18.65C4.1902 18.04 3.9402 18.21 3.6302 18.45C2.9702 19.29 2.96019 19.33 2.71019 19.37C2.71019 19.37 2.6202 19.46 2.6902 19.37C2.5902 19.46 2.6202 19.4 2.6302 19.39C2.6802 19.33 2.7302 19.28 2.7902 19.22C2.7702 19.25 2.76019 19.28 2.74019 19.31C2.95019 19.08 3.0802 18.94 3.1902 18.82C3.1902 18.75 3.28019 18.58 3.21019 18.63C2.84019 18.93 2.81021 18.76 2.70021 18.7C2.66021 18.75 2.60019 18.83 2.59019 18.85C2.53019 18.98 2.4902 19.11 2.4402 19.24C2.3802 19.27 2.33019 19.27 2.24019 19.33C2.16019 19.39 2.04019 19.52 1.95019 19.62C1.91019 19.73 1.8302 19.89 1.8302 19.94C1.8302 20.01 1.9102 19.99 1.9402 20.04C1.9502 20.06 1.90021 20.18 1.87021 20.25C1.78021 20.35 1.6402 20.52 1.6002 20.53C1.4102 20.6 1.0502 20.98 1.0202 20.79C0.7902 21.15 0.480201 21.61 0.740201 21.41C0.780201 21.38 0.890199 21.23 0.910199 21.22C0.950199 21.21 0.940193 21.27 0.950193 21.3C0.870193 21.41 0.790202 21.51 0.710202 21.63C0.620202 21.76 0.500202 21.97 0.460202 22.06C0.420202 22.16 0.420202 22.25 0.460202 22.19C0.820202 21.77 0.840201 21.91 0.740201 22.27C0.660201 22.55 0.820202 22.42 1.1002 22.05C1.2102 21.9 1.3502 21.69 1.4702 21.54C1.5102 21.49 1.53019 21.51 1.53019 21.54C1.53019 21.57 1.4802 21.67 1.4402 21.74C1.2002 22.14 1.1902 22.2 1.2202 22.22C1.2602 22.24 1.7502 21.56 1.4702 22.13C1.1702 22.79 1.1902 22.35 0.900205 22.88C0.940205 22.9 1.04021 22.84 1.01021 22.97C0.950205 23.24 1.6202 22.19 1.2902 22.87C0.920204 23.64 0.920202 23.22 0.600202 23.76C0.530202 23.88 0.450206 23.82 0.370206 23.87C0.330206 23.89 0.270197 23.97 0.220197 24.02C0.220197 24.08 0.230202 24.11 0.210202 24.21C0.170202 24.34 0.120203 24.51 0.0702029 24.68C-0.0497971 25.07 -0.0397959 25.18 0.290204 24.53C0.310204 24.49 0.3802 24.43 0.3802 24.47C0.3402 24.92 0.620207 24.71 0.730207 24.86C0.740207 24.87 0.800192 24.78 0.840192 24.74C0.840192 24.67 0.840206 24.62 0.870206 24.53C0.900206 24.44 0.950196 24.31 1.0002 24.19C1.0802 24.1 1.17021 23.98 1.23021 23.92C1.30021 23.85 1.3502 23.82 1.4102 23.78C1.4102 23.72 1.4102 23.66 1.4102 23.61C1.4102 23.56 1.4002 23.53 1.3902 23.49C1.4602 23.42 1.51019 23.38 1.59019 23.29C1.77019 23.07 1.95019 22.94 2.14019 22.5C2.28019 22.2 2.73021 21.51 2.45021 21.69C2.38021 21.73 2.36021 21.69 2.36021 21.62C2.36021 21.59 2.4302 21.42 2.5002 21.31C2.6502 21.08 2.68021 21.05 2.67021 21.16C2.62021 21.64 2.74019 21.55 3.46019 20.72C3.63019 20.52 3.92021 20.27 3.95021 20.22C4.30021 19.62 4.40021 19.7 4.64021 19.44C4.78021 19.29 4.9202 19.17 5.0402 19.02C5.3202 18.67 5.58019 18.42 5.81019 18.2C6.04019 17.98 6.2602 17.79 6.5002 17.61C6.7902 17.38 7.11021 17.09 7.45021 16.81C8.16021 16.21 8.15021 16.21 7.80021 16.77C7.69021 16.94 7.59021 17.11 7.55021 17.23C7.47021 17.45 7.33019 17.75 7.87019 17.32V17.18C7.98019 17.08 8.1502 16.93 8.2202 16.89C8.4002 16.79 8.61021 16.68 8.20021 17.15C8.25021 17.27 8.73019 16.89 8.90019 16.88C8.95019 16.88 8.9002 16.98 8.8502 17.07C8.8502 17.09 8.64019 17.28 8.53019 17.38C7.98019 17.87 7.9802 17.88 8.0402 17.97C8.0802 18.03 8.21021 17.97 8.48021 17.76C8.65021 17.62 8.83021 17.49 9.01021 17.32C9.45021 16.93 8.8202 17.61 9.1302 17.36C9.5002 17.08 9.84021 16.83 10.1702 16.61C10.9702 16.09 12.0302 15.23 12.8902 14.78C12.9502 14.74 13.2602 14.59 13.6402 14.25C13.8502 14.05 14.1502 13.83 14.4702 13.62C14.6302 13.51 14.7902 13.41 14.9602 13.32C15.1302 13.23 15.2902 13.14 15.4502 13.07C15.7302 12.93 16.0102 12.8 16.3102 12.65C16.6102 12.5 16.9302 12.32 17.2902 12.11C17.5102 11.98 17.8302 11.85 18.0602 11.76C18.3902 11.65 18.7002 11.54 19.0202 11.43C19.3402 11.33 19.6602 11.23 19.9802 11.14C20.2802 11.04 20.5802 10.97 20.8802 10.89C21.1802 10.8 21.4802 10.73 21.7902 10.65C21.9002 10.62 22.1702 10.53 22.1902 10.51C22.4302 10.33 22.6102 10.33 22.8702 10.27C23.1002 10.22 23.4102 10.11 23.7002 10.04C23.9602 9.97001 24.3402 9.89002 24.4702 9.83002C24.8002 9.69002 25.1002 9.6 25.4502 9.53C25.5902 9.5 25.7402 9.48001 25.8902 9.45001C25.6002 9.60001 25.3102 9.75002 25.0402 9.86002C24.5402 10.08 23.8502 10.45 23.2402 10.79C22.2702 11.33 21.3002 11.88 20.3302 12.36C20.2502 12.44 20.0902 12.55 20.1002 12.58C20.1302 12.71 19.6602 12.91 19.3602 13.01C19.1102 13.11 18.7902 13.19 18.7302 13.17C18.6602 13.14 18.4802 13.19 18.2902 13.25C18.0602 13.33 17.7602 13.46 17.5802 13.51C17.5802 13.57 17.7902 13.56 17.1602 13.83C16.8802 13.95 16.5802 14.08 16.3702 14.16C16.0402 14.29 15.7202 14.41 15.4102 14.54L14.9302 14.73C14.7802 14.8 14.6202 14.88 14.4702 14.95C14.1802 15.09 13.8902 15.19 13.8802 15.37C13.8802 15.45 13.7702 15.57 13.5802 15.71C13.3902 15.86 13.1302 16.05 12.7902 16.27C12.6502 16.36 12.4902 16.46 12.4202 16.48C12.3402 16.51 12.2902 16.46 12.3202 16.44C13.4902 15.47 13.1802 15.44 13.5502 15.03C13.7002 14.87 13.5802 14.81 13.3302 14.93C12.5302 15.32 11.4502 16.17 10.5602 16.99C10.4502 17.09 10.3402 17.19 10.2302 17.3C10.1302 17.42 10.0302 17.53 9.92021 17.65C9.72021 17.89 9.51021 18.14 9.30021 18.38C9.09021 18.61 8.9302 18.86 8.7502 19.11C8.5702 19.36 8.37021 19.61 8.11021 19.87C8.10021 19.87 7.9602 20.14 7.9102 20.25C7.7802 20.55 8.03019 20.14 8.12019 20.04C8.43019 19.74 8.85021 19.3 8.98021 19.25C9.07021 19.22 9.15018 19.18 9.27018 19.08C9.33018 19.03 9.39021 18.96 9.48021 18.88C9.57021 18.8 9.67021 18.7 9.80021 18.57C9.96021 18.41 10.2002 18.21 10.2502 18.2C10.3102 18.2 10.2202 18.35 10.1502 18.48C10.0502 18.67 9.8902 18.79 9.7502 18.89C9.5502 19.03 9.30019 19.3 9.21019 19.33C8.98019 19.41 8.8402 19.87 8.7202 19.91C8.4002 20.01 7.91019 20.82 7.71019 21.2C7.49019 21.6 7.24019 21.78 7.12019 22.16C7.08019 22.32 6.61021 23.04 6.39021 23.52C6.15021 23.98 6.21021 23.72 6.14021 23.76C5.90021 24.3 5.84019 24.55 5.93019 24.58C5.99019 24.6 6.00021 24.74 6.01021 24.89C6.01021 24.94 5.89019 25.38 5.84019 25.35C5.74019 25.27 5.4302 26.16 5.3202 26.29C5.2902 26.32 5.1802 26.62 5.1002 26.8C5.1302 26.83 5.14021 26.93 5.20021 26.87C5.25021 26.81 5.3602 26.56 5.4402 26.44C5.8102 25.82 5.84019 26.23 5.53019 27.34C5.49019 27.48 5.46019 27.61 5.43019 27.74C5.41019 27.87 5.3802 28.01 5.3502 28.15C5.2902 28.38 5.1502 28.72 5.1302 28.86C5.0502 29.31 5.0002 29.7 4.9102 30.04C4.8302 30.38 4.7202 30.68 4.6302 30.98C4.5502 31.23 4.47019 31.5 4.40019 31.8C4.32019 32.09 4.25019 32.43 4.21019 32.76C4.28019 32.74 4.3402 32.85 4.4102 32.68C4.5502 32.3 4.71019 32.31 4.90019 31.51C4.98019 31.16 4.9502 31.52 4.9702 31.63C4.9902 31.77 5.08021 31.62 5.01021 32.12C4.95021 32.48 4.95019 32.97 4.90019 33.18C4.71019 34.01 4.61019 34.77 4.49019 35.56C4.47019 35.77 4.40021 35.94 4.42021 36.09C4.47021 36.64 4.45021 36.93 4.42021 37.16C4.40021 37.39 4.37019 37.56 4.37019 37.86C4.37019 38.2 4.37019 38.51 4.37019 38.81C4.38019 39.12 4.4002 39.42 4.4102 39.73C4.4102 39.8 4.45021 40.02 4.48021 40.09C4.52021 40.21 4.5802 40.35 4.6002 40.33C4.6702 40.21 4.80021 40.23 4.80021 39.86C4.82021 38.6 5.30019 40.41 5.59019 40.56C5.61019 40.56 5.69019 40.86 5.74019 41.02C5.81019 41.23 5.86021 41.4 5.89021 41.56C5.93021 41.72 5.97019 41.85 5.99019 41.98C6.04019 42.24 6.08021 42.48 6.17021 42.79C6.21021 42.73 6.28019 42.75 6.28019 42.59C6.25019 41.77 6.43021 41.52 6.48021 40.73C6.48021 40.6 6.56021 40.65 6.61021 40.66C6.70021 40.68 6.75021 40.94 6.92021 41.5C7.03021 41.83 7.11021 42.11 7.17021 42.36C7.23021 42.61 7.27021 42.81 7.30021 42.99C7.35021 43.29 7.4002 43.58 7.4402 43.87C7.4602 44.01 7.48021 44.16 7.51021 44.3C7.54021 44.44 7.57019 44.58 7.59019 44.71C7.66019 45.03 7.73019 45.37 7.81019 45.71C7.90019 46.05 8.0102 46.38 8.1002 46.71C8.2902 47.39 8.56021 48.03 8.76021 48.63C8.84021 48.89 9.06019 49.3 9.62019 49.96C9.69019 50.04 9.81019 50.22 9.81019 50.23C9.81019 50.37 10.1702 50.78 10.4402 51.15C10.7902 51.63 11.2702 51.83 11.5302 52.22C11.5602 52.26 11.8602 52.5 12.1902 52.72C12.5202 52.92 12.8402 53.11 12.8502 53.1C12.9102 53.05 13.1402 53.1 12.9602 52.9C12.5302 52.43 12.8102 52.49 12.6502 52.22C12.4902 51.95 12.6002 51.85 12.3002 51.43C12.0502 51.07 11.9402 50.83 11.7902 50.53C11.7502 50.44 11.7002 50.34 11.6702 50.26C11.5202 49.77 11.3802 49.31 11.2602 48.83C11.2302 48.7 11.3002 48.69 11.4402 48.78C11.5802 48.86 11.8102 49.03 12.0602 49.28C12.2702 49.48 12.4902 49.74 12.6902 49.94C13.0402 50.29 12.7302 50.11 12.8002 50.24C12.8102 50.26 12.8502 50.31 12.8802 50.34L13.1302 50.65C13.1902 50.68 13.3002 50.74 13.3202 50.72C13.4402 50.61 13.5402 50.48 13.6602 50.37C13.6802 50.35 13.7802 50.42 13.8402 50.44C13.8702 50.5 13.9102 50.57 13.9102 50.6C13.9102 50.72 13.9102 50.83 13.9102 50.94C13.9102 51.09 14.1402 51.4 14.4202 51.75C14.4902 51.84 14.5702 51.92 14.6402 52.01C14.7202 52.09 14.8002 52.17 14.8702 52.25C15.0202 52.41 15.1602 52.56 15.2502 52.69C15.3002 52.76 15.7302 53.06 15.7302 53.09C15.6902 53.24 15.8802 53.49 16.2002 53.8C16.3202 53.92 16.1302 53.89 16.1802 53.98C16.2102 54.03 16.4502 54.19 16.6002 54.31C16.6702 54.31 16.7502 54.34 16.8102 54.34C17.0402 54.35 17.3502 54.37 17.3202 54.24C17.3102 54.18 17.8102 54.37 18.0702 54.53C18.3802 54.72 18.6402 54.86 18.9402 55.03C19.1902 55.17 19.4202 55.33 19.7302 55.43C20.0902 55.56 20.3902 55.68 20.6802 55.81C20.9702 55.92 21.2502 56.03 21.5402 56.14C21.6602 56.18 21.8002 56.24 21.9502 56.29C22.1002 56.33 22.2702 56.38 22.4302 56.42C22.7502 56.51 23.0602 56.58 23.2502 56.6C23.6202 56.63 23.9102 56.67 24.1702 56.72C24.4302 56.78 24.6602 56.83 24.9002 56.88C25.3002 56.96 25.7502 57.05 26.1802 57.08C26.6102 57.11 27.0402 57.14 27.3802 57.12C27.7702 57.1 28.1302 57.1 28.5002 57.1C28.6802 57.19 28.9002 57.27 29.1302 57.35C29.3802 57.43 29.6202 57.51 29.8502 57.59H29.8402C28.7702 57.64 28.5502 57.7 28.9302 57.84C29.0502 57.88 29.2302 57.91 28.9702 57.96C28.8402 57.99 28.7702 58.05 28.8302 58.06C29.1702 58.08 29.6402 58.1 29.8902 58.08C30.4602 58.01 30.7302 57.97 30.7202 58.08C30.8502 58.07 31.0902 58.05 31.1002 58.05C31.1002 58.01 31.1202 57.99 31.1702 57.98C31.2302 58 31.2802 58.01 31.3402 58.02C31.6202 58.08 31.9302 58.13 32.2702 58.18C32.6802 58.24 33.2502 58.33 33.5002 58.41C33.9302 58.54 34.5302 58.6 35.1702 58.68C35.8002 58.72 36.4702 58.78 37.0402 58.8C37.4602 58.82 37.9002 58.83 38.3502 58.78C38.8102 58.74 39.3002 58.7 39.8102 58.6C40.1402 58.54 40.4802 58.49 40.8102 58.43C41.1202 58.36 41.4402 58.3 41.7502 58.23C42.0602 58.17 42.3902 58.09 42.7202 58.01C43.0502 57.93 43.3802 57.86 43.7202 57.76C45.1002 57.41 46.4702 56.96 47.8602 56.45C48.0702 56.37 48.2702 56.29 48.4802 56.21C48.6902 56.13 48.8902 56.03 49.0902 55.95C49.4102 55.81 49.8602 55.62 50.0202 55.51C50.4302 55.24 50.8002 55.05 51.1402 54.88C51.4802 54.71 51.7902 54.59 52.1102 54.48C52.1902 54.46 52.2902 54.42 52.4002 54.36C52.7402 54.18 53.1902 53.96 53.4102 53.8C53.9102 53.43 53.0302 53.96 53.2002 53.78C53.2302 53.75 52.9302 53.9 52.8702 53.9C52.8102 53.9 52.8002 53.87 52.8702 53.81C52.9502 53.74 53.2502 53.56 53.3402 53.51C53.6502 53.36 53.9002 53.24 54.2502 52.94C54.3102 52.89 54.5402 52.73 54.6102 52.69C54.9402 52.52 55.2802 52.34 55.6102 52.16C55.9302 51.98 56.2402 51.8 56.5102 51.66C56.7702 51.53 56.8702 51.44 57.1502 51.18C57.7402 50.64 57.8002 50.42 58.1502 50.01C58.4702 49.63 58.6402 49.41 58.6502 49.34C58.6602 49.27 58.5302 49.36 58.2102 49.58C57.7902 49.87 57.7802 49.83 58.0802 49.44C58.2402 49.24 58.4102 49.03 58.6002 48.82C58.7902 48.61 59.0102 48.4 59.2202 48.15C59.6202 47.71 59.8902 47.41 59.8902 47.56C59.8902 47.78 59.9202 47.97 59.9202 48.18C59.9202 48.23 59.8502 48.35 59.8202 48.43C59.7602 48.46 59.6702 48.52 59.6502 48.5C59.5402 48.42 59.4402 48.32 59.3302 48.24C59.3302 48.24 59.2002 48.36 59.1302 48.43C59.1102 48.45 59.0402 48.54 59.0502 48.54C59.0702 48.58 59.1202 48.58 59.1302 48.63C59.1702 48.8 59.3602 48.81 59.3502 49.03C59.6502 48.69 59.9302 48.31 60.2302 47.95C60.5202 47.58 60.8002 47.2 61.0902 46.82C61.0502 46.8 60.9902 46.8 60.9902 46.73C60.9902 46.56 60.9902 46.36 60.9902 46.19C60.9902 46.12 60.8802 46.15 60.9902 45.98C61.1602 45.69 61.4402 45.28 61.6902 44.89C61.8402 44.65 62.0102 44.41 62.1802 44.15C62.3402 43.88 62.5202 43.6 62.7102 43.29C63.0402 42.77 63.3902 41.98 63.7602 41.39C63.8002 41.32 64.0002 40.9 63.9902 40.87C63.9902 40.7 64.0102 40.52 64.2802 39.89C64.6902 38.88 64.9802 37.75 65.2802 36.72C65.4502 36.18 65.5802 35.64 65.7102 35.14C65.8002 34.79 65.8602 34.79 65.8002 35.28C65.6902 36.14 65.7802 36.46 65.4902 37.48C65.4702 37.55 65.4302 37.75 65.4302 37.81C65.4102 38.21 65.2602 38.67 65.0402 39.18C64.9002 39.51 64.7002 39.98 64.5902 40.25C64.5002 40.53 64.3802 40.85 64.2902 41.13C64.1902 41.4 64.1202 41.62 64.1102 41.7C64.1102 41.74 64.0902 41.78 64.0902 41.83C64.3902 41.23 64.6402 40.63 64.8902 40.07C65.0102 39.79 65.1102 39.5 65.2202 39.23C65.3302 38.96 65.4302 38.69 65.5202 38.43C65.6002 37.99 65.6902 37.55 65.7502 37.08C65.7902 36.78 65.8402 36.45 65.8902 36.11C65.9302 35.77 65.9602 35.42 66.0002 35.07C66.0502 34.54 66.0802 34.06 66.1402 33.71C66.1902 33.36 66.2302 33.11 66.3002 33.05C66.3602 32.99 66.4202 33.05 66.4802 33.03C66.4902 33.03 66.5102 32.85 66.5202 32.74C66.5202 32.73 66.5202 32.6 66.5002 32.57L66.5502 32.56ZM2.0802 20.78C1.9002 21.06 1.7302 21.32 1.7202 21.2C1.7202 21.16 1.8402 20.92 1.9702 20.68C2.1302 20.52 2.2402 20.41 2.3502 20.3C2.2602 20.46 2.1802 20.62 2.0702 20.78H2.0802ZM11.8102 8.91C11.7202 9.03 11.5502 9.19 11.4202 9.34C11.3602 9.36 11.2502 9.42002 11.2502 9.40002C11.2502 9.34002 11.3002 9.25002 11.3302 9.18002C11.4402 9.10002 11.5402 9.01002 11.6502 8.93002C11.7102 8.92002 11.8502 8.86 11.8202 8.91H11.8102ZM11.6702 8.32001C11.6102 8.34001 11.5402 8.37001 11.4102 8.42001C11.5202 8.32001 11.6302 8.23 11.7702 8.12C11.8302 8.08 11.9602 8.01002 12.0502 7.96002C11.9202 8.08002 11.8002 8.20001 11.6702 8.32001ZM13.6502 7.38C13.7102 7.31 13.8302 7.22001 13.9202 7.14001C14.1202 7.05001 14.2102 7.01 14.3002 6.97C14.1202 7.1 13.9402 7.22002 13.7702 7.36002C13.7302 7.36002 13.6302 7.4 13.6502 7.38ZM15.9802 7.07001C15.9002 7.11001 15.7702 7.16 15.7502 7.16C15.7102 7.16 15.7002 7.12 15.7002 7.09C15.7002 7.05 15.7402 6.99 15.7602 6.94C15.8702 6.92 15.9902 6.90002 16.0202 6.90002C16.0502 6.95002 16.0702 6.97 16.0702 7C16.0702 7 15.9902 7.06001 15.9702 7.07001H15.9802ZM16.3102 5.17001C16.1502 5.24001 15.9202 5.36001 15.8502 5.39001C15.6402 5.45001 15.4802 5.48001 15.3102 5.51001C15.3102 5.51001 15.3802 5.46001 15.4402 5.42001C15.7602 5.31001 16.0902 5.20001 16.4202 5.10001C16.3802 5.13001 16.3502 5.15002 16.3102 5.18002V5.17001ZM16.9602 4.80002C16.8902 4.81002 16.7702 4.86 16.7802 4.84C16.8002 4.8 16.8902 4.73001 16.9402 4.67001C17.1902 4.57001 17.2902 4.53002 17.4002 4.49002C17.2502 4.59002 17.1002 4.69002 16.9602 4.80002ZM8.0702 22.22C7.9302 22.42 7.7802 22.6 7.7202 22.63C7.6902 22.65 7.82021 22.33 7.92021 22.14C8.09021 21.81 8.34019 21.49 8.56019 21.17C8.60019 21.12 8.65019 21.09 8.68019 21.05C8.75019 21.1 8.3202 21.84 8.0702 22.21V22.22ZM39.8202 11.24C39.7302 11.24 39.6402 11.24 39.5502 11.24C39.5102 11.21 39.4102 11.17 39.4502 11.16C39.5502 11.12 39.7102 11.09 39.8502 11.05C39.8902 11.06 39.9802 11.09 39.9702 11.1C39.9402 11.14 39.8802 11.18 39.8302 11.23L39.8202 11.24ZM35.6102 12.85C35.6102 12.85 35.5402 12.93 35.5002 12.97C35.3302 13.01 35.2602 13.04 35.1902 13.06C35.2802 12.99 35.3902 12.91 35.4802 12.85C35.5202 12.85 35.6102 12.84 35.6102 12.85ZM35.9202 12.65C36.0202 12.62 36.1802 12.57 36.2302 12.57C36.3702 12.57 36.4802 12.6 36.5802 12.62C36.5802 12.62 36.5302 12.64 36.4902 12.66C36.2802 12.66 36.0602 12.68 35.8402 12.7C35.8602 12.68 35.8902 12.66 35.9202 12.66V12.65ZM36.4002 11.13C36.3202 11.12 36.2302 11.1 36.2002 11.1C36.1902 11.04 36.1702 11.02 36.1802 10.99C36.1802 10.99 36.2402 10.95 36.2602 10.95C36.3302 10.95 36.4302 10.92 36.4402 10.93C36.4702 10.95 36.4702 10.98 36.4602 11.01C36.4502 11.05 36.4202 11.09 36.3902 11.13H36.4002ZM37.4002 11.63C37.5402 11.59 37.6702 11.53 37.8102 11.5C37.8402 11.51 37.9102 11.53 37.8902 11.54C37.8402 11.57 37.7402 11.6 37.6702 11.63H37.4002ZM39.2802 11.72C39.2802 11.72 39.3602 11.75 39.4502 11.79C39.3602 11.79 39.2602 11.82 39.1502 11.83C39.1102 11.83 39.0202 11.82 38.9502 11.81C39.0602 11.78 39.1602 11.75 39.2802 11.71V11.72ZM28.2802 17.5C28.2602 17.44 28.2902 17.38 28.6502 17.24C28.8602 17.16 29.1002 17.09 29.3902 16.86C29.5102 16.76 29.4402 16.73 29.4402 16.68C29.4402 16.65 29.4102 16.63 29.3002 16.68C29.1402 16.73 29.1002 16.72 29.0902 16.68C29.0902 16.68 29.1202 16.66 29.1602 16.63C29.2002 16.6 29.2402 16.57 29.2802 16.55C29.3202 16.55 29.3702 16.55 29.3902 16.57C29.3902 16.57 29.3202 16.63 29.3102 16.66C29.5202 16.54 29.7102 16.44 29.7202 16.45C29.7702 16.5 29.9802 16.39 30.2102 16.22C30.3202 16.14 30.3002 16.06 30.3702 16.02C30.5502 15.91 30.7602 15.82 30.9502 15.71C31.0102 15.67 31.1302 15.56 31.1302 15.54C31.1302 15.48 31.0702 15.47 31.0702 15.41C31.0702 15.38 31.1602 15.29 31.2102 15.23C31.2502 15.23 31.2902 15.24 31.3402 15.24C31.3802 15.24 31.4402 15.24 31.4802 15.24C31.5702 15.17 31.6902 15.09 31.7402 15.03C31.8102 14.95 31.8102 14.91 31.9002 14.83C32.0502 14.69 32.2102 14.53 32.5702 14.43C32.6602 14.41 32.9802 14.19 33.0702 14.17C33.2602 14.12 33.4102 14.06 33.5402 13.98C33.6702 13.91 33.7802 13.83 33.8802 13.74C34.0402 13.6 34.2302 13.5 34.4802 13.45C34.8902 13.39 34.9702 13.15 35.3102 13.08C35.4402 13.05 35.5702 13.02 35.7102 13C35.8402 12.98 35.9702 12.95 36.1002 12.93C36.1302 12.91 36.1502 12.88 36.1802 12.86C36.2202 12.83 36.2702 12.8 36.3102 12.76C37.0202 12.72 36.7902 12.63 36.8502 12.52C36.9102 12.41 37.1002 12.29 37.1902 12.17C37.2602 12.08 37.3502 12.03 37.7102 11.99C37.7702 11.99 37.9102 11.96 37.9102 11.95C37.9102 11.86 38.1402 11.74 37.6602 11.74C37.6302 11.74 37.6102 11.76 37.6202 11.74C37.5202 11.77 37.4702 11.77 37.4702 11.77C37.5002 11.75 37.5402 11.74 37.5802 11.72H37.6502C37.8002 11.6 38.0802 11.59 38.1602 11.63C38.2702 11.7 38.1802 11.8 38.2102 11.88C38.2302 11.92 38.3002 11.96 38.3902 11.99C38.4402 12.01 38.6102 12.06 38.6802 11.99C38.7302 11.93 38.8002 11.89 39.0302 11.91C39.1102 11.91 39.1402 11.97 39.1702 12C39.1902 12.02 39.1502 12.04 39.1702 12.06C39.2302 12.09 39.3102 12.11 39.3902 12.14C39.4702 12.12 39.6202 12.11 39.6402 12.09C39.7202 11.99 39.5402 11.86 39.9102 11.79C40.1302 11.76 40.4502 11.7 40.3802 11.64C40.2502 11.53 40.0502 11.44 40.4802 11.41C39.8902 11.23 40.3902 11.16 40.5402 11.06C40.5502 11.06 40.5602 11.05 40.5802 11.04C40.6702 11.08 40.7602 11.11 40.8502 11.15C41.0402 11.22 41.2402 11.28 41.4502 11.34C41.6602 11.41 41.8702 11.47 42.0802 11.55C42.2802 11.62 42.4802 11.68 42.6802 11.76C42.8802 11.84 43.0902 11.92 43.2902 12.07C43.2902 12.07 43.5002 12.14 43.5802 12.15C43.8102 12.2 43.5002 12.07 43.4202 12.01C43.1802 11.82 42.8102 11.6 42.7602 11.51C42.7002 11.38 42.6102 11.26 42.1402 11.05C42.1402 11.05 42.1302 11.05 42.1202 11.05C42.2902 11.08 42.4702 11.11 42.6502 11.15C42.7102 11.2 42.7702 11.25 42.7902 11.28C42.7802 11.28 42.7602 11.3 42.7502 11.31C42.7402 11.31 42.7202 11.33 42.7502 11.34C42.8602 11.38 42.9702 11.43 43.0802 11.48C43.1202 11.48 43.1502 11.48 43.1902 11.48C43.2402 11.49 43.2802 11.51 43.3002 11.53C43.4102 11.76 44.0202 12.03 44.3302 12.14C44.6402 12.26 44.7502 12.47 45.0502 12.54C45.1702 12.57 45.6802 12.92 46.0002 13.14C46.3002 13.37 46.1102 13.31 46.1202 13.37C46.4902 13.6 46.6602 13.66 46.7202 13.59C46.7602 13.54 46.8702 13.54 46.9902 13.56C47.0302 13.56 47.3302 13.74 47.2902 13.77C47.1902 13.85 47.7802 14.23 47.8202 14.38C47.8302 14.42 48.0002 14.58 48.1002 14.68C48.1402 14.66 48.2202 14.68 48.2002 14.62C48.1802 14.56 48.0402 14.41 47.9802 14.31C47.6802 13.84 47.9802 13.91 48.7102 14.46C48.8902 14.6 49.0502 14.72 49.2202 14.87C49.3602 15 49.5402 15.23 49.6202 15.3C49.9002 15.53 50.1202 15.76 50.3002 15.97C50.4702 16.19 50.6002 16.41 50.7202 16.62C50.8202 16.8 50.9302 17 51.0502 17.21C51.1702 17.42 51.3102 17.65 51.4402 17.87C51.4802 17.82 51.5902 17.84 51.5502 17.7C51.5202 17.6 51.5102 17.52 51.5102 17.45C51.5802 17.49 51.6402 17.54 51.7102 17.59C51.6402 17.51 51.6002 17.45 51.5602 17.42C51.5402 17.41 51.5202 17.4 51.5002 17.38C51.4802 17.23 51.4402 17.06 51.2402 16.7C51.0802 16.46 51.2902 16.67 51.3602 16.72C51.4502 16.79 51.4302 16.64 51.6802 16.97C51.8602 17.21 52.1202 17.52 52.1902 17.69C52.1702 17.7 52.1602 17.72 52.1702 17.75C52.1902 17.79 52.2402 17.85 52.2902 17.92C52.4002 18.15 52.5002 18.38 52.6002 18.61C52.7202 18.91 52.8402 19.21 52.9502 19.52C52.9502 19.54 52.9502 19.55 52.9702 19.57C52.9502 19.56 52.9302 19.54 52.9202 19.53C52.7702 19.43 52.6302 19.32 52.4602 19.22C52.2902 19.11 52.1202 19 51.9202 18.86L51.2802 18.41L50.9602 18.19C50.8502 18.12 50.7302 18.06 50.6202 17.99C50.1702 17.73 49.7302 17.48 49.3102 17.26C48.8202 17.03 48.8402 16.97 48.5702 16.84C47.9902 16.54 47.5002 16.4 47.5802 16.53C47.6602 16.67 48.2602 16.95 48.4902 17.05C48.7202 17.15 48.9602 17.27 49.2102 17.4C49.4402 17.54 49.6802 17.68 49.9202 17.82C50.3802 18.1 50.8402 18.35 51.1602 18.52C51.2102 18.55 51.3902 18.67 51.4602 18.73C51.6402 18.88 51.8002 19.02 51.9602 19.17C52.1002 19.23 52.2202 19.26 52.4102 19.36C52.5502 19.45 52.7702 19.63 52.9602 19.78C52.9802 19.8 53.0102 19.82 53.0402 19.84C53.0502 19.88 53.0602 19.91 53.0802 19.94C53.5402 20.7 53.4402 20.82 53.5902 21.27C53.6002 21.3 53.6102 21.33 53.6202 21.36C53.6102 21.35 53.6002 21.34 53.5902 21.33C53.5402 21.29 53.4902 21.24 53.4402 21.19C53.3902 21.15 53.3402 21.1 53.2902 21.03L53.0502 20.76C52.9702 20.67 52.8902 20.59 52.8102 20.51C52.6502 20.34 52.4802 20.18 52.3002 20.03C52.2102 19.95 52.1202 19.88 52.0302 19.8C51.9302 19.73 51.8302 19.66 51.7302 19.59C51.5202 19.46 51.3102 19.33 51.0902 19.2C50.6002 18.93 50.4902 18.82 50.4402 18.63C50.0202 18.36 49.5502 18.08 49.1702 17.82C48.9902 17.69 48.8602 17.63 48.7702 17.6C48.6802 17.57 48.6402 17.56 48.5902 17.56C48.5002 17.56 48.4302 17.56 48.1102 17.4C47.7302 17.21 47.3202 17.05 46.9202 16.94C46.3602 16.78 45.5402 16.49 45.3602 16.53C45.0502 16.58 44.0702 16.26 43.6202 16.25C43.3202 16.25 42.9702 16.2 42.5802 16.14C42.3902 16.11 42.1902 16.06 41.9702 16.05C41.7602 16.03 41.5402 16 41.3202 15.98C41.1202 15.96 40.9202 15.94 40.7102 15.94C40.6002 15.94 40.5002 15.93 40.3902 15.93C40.2902 15.93 40.1802 15.93 40.0802 15.93C39.6602 15.94 39.2702 15.93 38.9302 15.85C38.9002 15.85 38.7802 15.83 38.6502 15.85C38.5202 15.85 38.4002 15.87 38.3702 15.88C37.6502 16.07 36.9602 16 36.3002 16.16C35.9902 16.22 35.6902 16.25 35.3802 16.29C35.0802 16.34 34.7902 16.43 34.5202 16.59C34.2702 16.63 34.0102 16.68 33.7502 16.72C33.4902 16.76 33.2502 16.84 33.0002 16.9C32.6502 16.99 32.6902 17.02 32.5902 17.1C32.4802 17.18 32.3802 17.27 32.2102 17.37C32.0302 17.46 31.7902 17.58 31.4102 17.73C31.3702 17.74 31.1402 17.88 31.1202 17.91C31.0702 17.97 31.0802 17.99 31.1202 18C30.7402 18.04 30.3702 18.07 30.0302 18.1C29.9002 18.1 29.6702 18.15 29.5002 18.2C29.1902 18.29 28.8902 18.39 28.6002 18.49C28.3002 18.59 28.0302 18.68 27.7402 18.74C27.6702 18.75 27.4502 18.86 27.4502 18.87C27.5302 18.97 26.9502 19.16 26.8302 19.18C26.2802 19.28 25.9802 19.47 25.8502 19.63C25.7502 19.76 25.6002 19.82 25.3102 19.91C25.0902 19.97 24.8702 20.04 24.6502 20.1H24.6302C24.8502 19.98 25.0702 19.85 25.3002 19.71C25.4502 19.62 25.7102 19.49 25.8902 19.4C26.6102 19.05 27.1402 18.62 27.7802 18.26C27.8102 18.24 27.8702 18.19 27.8602 18.19C27.4302 18.27 28.3502 17.63 28.3002 17.5H28.2802ZM56.1502 23.26C56.3202 23.72 56.5502 23.98 56.6902 24.18C56.7402 24.25 56.7902 24.31 56.8402 24.36C56.9202 24.64 56.9602 24.87 56.9902 25.06C57.0502 25.6 57.0602 26.12 57.0702 26.61C57.0702 26.93 57.0702 27.27 57.0702 27.6C57.0002 27.37 56.9402 27.12 56.8902 26.88C56.7702 26.26 56.5402 26.02 56.4002 25.64C56.3102 25.4 56.2202 25.18 56.1302 24.96C56.0802 24.84 56.0302 24.72 55.9802 24.6C55.9902 24.04 56.1202 23.77 56.1102 23.21C56.1102 23.22 56.1302 23.24 56.1402 23.25L56.1502 23.26ZM55.2402 23.11C55.2402 23.11 55.3602 23.35 55.4202 23.48C55.4902 23.62 55.5402 23.73 55.5802 23.85C55.3102 23.36 54.9802 22.92 54.6302 22.5C54.8402 22.71 55.1002 23.07 55.2302 23.12L55.2402 23.11ZM44.5502 11.36C44.5502 11.36 44.6002 11.38 44.6202 11.38C44.8202 11.46 45.0402 11.58 45.1902 11.68C45.3402 11.79 45.4802 11.91 45.5002 11.97C45.5102 11.99 45.2602 11.91 45.1102 11.83C44.8702 11.71 44.6302 11.55 44.3802 11.42C44.4402 11.4 44.4902 11.38 44.5402 11.36H44.5502ZM25.8302 31C25.7602 30.88 25.8702 30.72 26.1602 30.56C26.2202 30.53 26.2802 30.49 26.3202 30.49C26.3602 30.49 26.4102 30.54 26.4002 30.54C26.2602 30.69 26.2002 30.8 26.1802 30.88C26.0702 30.92 25.9602 30.96 25.8402 31.01C25.8402 31.01 25.8402 31.01 25.8402 31H25.8302ZM27.8902 30.26C27.8902 30.26 27.9302 30.23 27.9402 30.22C27.9802 30.25 27.9902 30.29 27.9402 30.38C28.0202 30.38 28.0602 30.38 28.0902 30.41C27.9202 30.46 27.7502 30.5 27.5902 30.54C27.6902 30.45 27.7902 30.35 27.8902 30.26ZM28.2202 30.35L28.3002 30.27C28.3002 30.27 28.3602 30.29 28.3702 30.31C28.3202 30.32 28.2702 30.34 28.2302 30.35H28.2202ZM28.8902 29.64L28.7802 29.78C28.7802 29.78 28.7302 29.76 28.7302 29.75C28.7302 29.72 28.7602 29.68 28.7802 29.65C28.8402 29.65 28.8602 29.65 28.8902 29.65V29.64ZM27.9902 31.8C27.9902 31.8 28.0402 31.82 28.0802 31.81C28.0402 31.96 28.1202 32 28.2402 32.04C28.3302 32.07 28.3502 32.17 28.4202 32.22C28.2802 32.24 28.1302 32.28 27.9902 32.31C27.8702 32.34 27.7202 32.37 27.6102 32.38C27.5002 32.4 27.4202 32.38 27.4202 32.33C27.4202 32.23 27.6902 32 28.0002 31.78L27.9902 31.8ZM39.4202 33.84C39.4202 33.84 39.4402 33.75 39.4502 33.7C39.4802 33.63 39.5102 33.64 39.5902 33.66C39.6802 33.69 39.7302 33.75 39.7502 33.84C39.7802 33.99 39.8002 34.14 39.8002 34.3C39.8202 34.67 39.8202 35.03 39.7502 35.38C39.7402 35.46 39.7202 35.57 39.8002 35.58C39.8002 35.58 39.8202 35.6 39.8102 35.61C39.7702 35.7 39.8102 35.74 39.8102 35.8C39.8102 35.88 39.9502 35.77 39.9102 35.88C39.9102 35.9 40.0702 35.83 40.0902 35.8C40.1402 35.74 40.2102 35.66 40.2202 35.62C40.2402 35.51 40.3302 35.42 40.3702 35.31C40.4102 35.2 40.4902 35.09 40.5202 34.97C40.5502 34.86 40.5702 34.76 40.6002 34.65C40.6002 34.62 40.6102 34.58 40.6202 34.55C40.6902 34.33 40.7502 34.11 40.8102 33.89C40.8402 33.77 40.9602 33.68 41.0702 33.71C41.1202 33.72 41.1602 33.75 41.1902 33.78C41.2402 33.84 41.1602 33.87 41.1502 33.93C41.1502 33.93 41.1502 33.95 41.1502 33.96V34.04C41.1502 34.04 41.2102 34.02 41.2202 34L41.5002 33.6C41.5002 33.6 41.5402 33.57 41.5602 33.56C41.5602 33.59 41.5502 33.61 41.5402 33.64C41.5002 33.72 41.4502 33.8 41.4102 33.88C41.2902 34.1 41.3502 34.33 41.2802 34.54C41.2802 34.57 41.3102 34.62 41.2902 34.64C41.2002 34.75 41.1402 34.87 41.0902 34.99C41.0702 35.03 41.0102 35.07 40.9802 35.12C40.9602 35.15 40.9702 35.18 40.9602 35.21L41.0302 35.17C41.1202 35.11 41.2102 35.05 41.2902 34.96C41.3202 34.92 41.4002 34.93 41.4002 34.96C41.4002 35.01 41.3702 35.07 41.3602 35.11C41.3502 35.15 41.3202 35.2 41.3302 35.23C41.3602 35.29 41.3302 35.35 41.3002 35.42C41.2702 35.47 41.2502 35.54 41.3002 35.54C41.3902 35.54 41.3402 35.59 41.3002 35.62C41.2702 35.65 41.2602 35.67 41.2602 35.69C41.2602 35.71 41.2602 35.72 41.2902 35.73C41.3502 35.75 41.3402 35.77 41.3502 35.81C41.3502 35.82 41.3302 35.84 41.3002 35.85C41.2102 35.89 41.0502 35.88 40.9202 35.89C40.8702 35.89 40.8202 35.89 40.8202 35.87C40.8202 35.85 40.7502 35.87 40.6102 35.89C40.5902 35.89 40.5302 35.91 40.5002 35.91C40.4402 35.91 40.4202 35.91 40.4202 35.91H40.3802C40.3802 35.91 40.3702 35.91 40.3202 35.91C40.2702 35.91 40.2402 35.91 40.2502 35.91C40.3502 35.91 40.2502 35.91 40.1802 35.91C40.1602 35.91 40.1302 35.91 40.1102 35.91H40.1302C40.1702 35.91 40.2102 35.91 40.2502 35.92C40.2602 35.92 40.2902 35.92 40.2902 35.92C40.2902 35.92 40.2902 35.92 40.2702 35.92C40.2502 35.92 40.2102 35.92 40.1902 35.92C40.1702 35.92 40.1402 35.92 40.1202 35.92C40.1302 35.92 40.1502 35.92 40.1702 35.93C40.2302 35.94 40.2802 35.95 40.2602 35.97C40.2402 35.97 40.2202 35.99 40.2002 35.99C40.0802 35.96 40.1102 36.01 40.0302 36C39.9502 36 39.9702 36 40.0502 36.06L40.0802 36.08C40.0402 36.08 39.9702 36.13 39.9002 36.12C39.7802 36.11 39.8002 36.18 39.6802 36.15C39.6602 36.2 39.5902 36.19 39.5202 36.19C39.5202 36.17 39.5202 36.14 39.4902 36.12C39.4302 36.08 39.4102 36.01 39.5202 35.92C39.5502 35.9 39.5602 35.86 39.5602 35.84C39.5602 35.82 39.5202 35.8 39.5102 35.81C39.3402 35.87 39.1302 35.86 38.9902 36C38.9502 36.04 38.8402 36.09 38.7802 36.06C38.7002 36.02 38.6002 36.06 38.5602 36.11C38.4902 36.19 38.4002 36.21 38.3002 36.25C38.2202 36.28 38.2102 36.26 38.2302 36.21C38.2602 36.13 38.3002 36.05 38.2502 35.98C38.2502 35.96 38.2302 35.94 38.2402 35.92C38.3202 35.76 38.3502 35.61 38.4602 35.43C38.5402 35.31 38.5202 35.24 38.4202 35.19C38.4002 35.18 38.4002 35.15 38.4102 35.13C38.4302 35.05 38.3102 35.03 38.3102 34.96H38.2902C38.2502 34.99 38.2102 35 38.1802 35C38.1802 34.97 38.1802 34.95 38.1802 34.93C38.1402 34.81 38.1502 34.66 38.0502 34.56C38.0002 34.52 38.0502 34.51 38.0702 34.48C38.0902 34.45 38.0702 34.38 38.1402 34.39C38.1902 34.4 38.2602 34.39 38.2902 34.43C38.4002 34.55 38.4702 34.7 38.5602 34.83C38.5802 34.87 38.5902 34.94 38.6102 34.94C38.7402 34.94 38.7302 35.1 38.7702 35.18C38.8102 35.26 38.8402 35.37 38.8602 35.46C38.8602 35.47 38.8802 35.48 38.8902 35.47C38.9002 35.46 38.9202 35.43 38.9202 35.41C38.9402 35.31 38.9702 35.2 38.9602 35.12C38.9102 34.85 39.1102 34.74 39.1902 34.56C39.1902 34.55 39.2302 34.55 39.2502 34.55C39.3502 34.52 39.3402 34.67 39.4002 34.71C39.4102 34.66 39.4402 34.6 39.4402 34.55C39.4302 34.31 39.4802 34.05 39.4502 33.8L39.4202 33.84ZM43.8902 29.76C43.7702 29.73 43.6402 29.71 43.5502 29.65C43.4902 29.61 43.4902 29.51 43.4702 29.43C43.4302 29.32 43.3502 29.24 43.2402 29.13C43.1802 29.07 43.1102 29.01 43.0502 28.95C43.0802 28.83 43.1502 28.74 43.1102 28.55C43.0502 28.36 43.0602 28.21 43.0402 28.03C43.0402 28.03 43.0402 28.02 43.0402 28.01C43.0802 28.07 43.1102 28.12 43.1502 28.18C43.1802 28.14 43.2102 28.11 43.2402 28.07C43.2602 28.04 43.2802 28 43.2902 27.97C43.2902 27.96 43.3002 27.94 43.3102 27.94C43.3102 27.94 43.3102 27.94 43.3102 27.96C43.3302 27.96 43.3602 27.99 43.3602 27.99C43.3602 27.98 43.3602 27.96 43.3602 27.94C43.3902 27.94 43.4302 27.96 43.4802 27.98C43.5502 28.02 43.6302 28.05 43.7002 28.09C43.8702 28.18 43.9202 28.27 43.9002 28.35C43.8602 28.52 43.7902 28.69 43.7402 28.86C43.7402 28.89 43.7302 28.94 43.7602 28.98C43.9702 29.21 43.9702 29.41 44.1302 29.64C44.2702 29.85 44.1902 29.87 43.9102 29.78L43.8902 29.76ZM43.9202 28.05C43.9202 28.05 43.8502 28.07 43.8202 28.08C43.7902 28.03 43.7302 27.96 43.7402 27.92C43.7402 27.9 43.8502 27.92 43.9102 27.92L43.9302 28.04L43.9202 28.05ZM43.6902 27.38C43.5002 27.38 43.3002 27.36 43.1102 27.35C43.0602 27.35 43.0102 27.35 42.9702 27.33C42.9602 27.2 42.9402 27.08 42.9202 26.94C42.8902 26.78 43.1402 26.78 43.4602 27C43.5802 27.09 43.7402 27.21 43.8302 27.33C43.8402 27.34 43.8502 27.35 43.8502 27.36C43.8002 27.36 43.7502 27.38 43.6802 27.38H43.6902ZM44.5902 27.65C44.5502 27.61 44.5202 27.58 44.4802 27.54C44.4502 27.54 44.4202 27.54 44.3902 27.55C44.4102 27.53 44.4402 27.51 44.4702 27.48C44.4902 27.47 44.5502 27.5 44.5902 27.51C44.5902 27.55 44.6002 27.6 44.5902 27.63V27.65ZM30.7802 40.86C30.7302 40.86 30.6802 40.84 30.6002 40.79C30.6702 40.76 30.7402 40.73 30.7802 40.7C30.8502 40.64 30.9202 40.62 30.9802 40.6C30.9502 40.61 30.9102 40.65 30.8802 40.68C30.8602 40.7 30.9002 40.75 30.8802 40.77C30.8502 40.83 30.8202 40.87 30.7602 40.87L30.7802 40.86ZM30.3902 40.67C30.3302 40.65 30.2902 40.62 30.2302 40.6C30.1802 40.58 30.1402 40.62 30.0902 40.63C30.0902 40.53 30.0402 40.49 29.9502 40.46C29.8402 40.41 29.7602 40.29 29.7602 40.15C29.7602 40.11 29.7502 40.08 29.7302 40.05C29.7302 40.02 29.7102 40 29.6902 39.98C29.6602 39.94 29.6202 39.91 29.6002 39.86C29.5702 39.74 29.5502 39.63 29.5602 39.5L29.5302 39.47C29.5302 39.47 29.5902 39.41 29.6202 39.39C29.7102 39.35 29.7602 39.32 29.7602 39.27C29.7602 39.25 29.7902 39.22 29.8202 39.21C29.8502 39.2 29.9002 39.19 29.9402 39.19C30.0002 39.19 29.9702 39.21 29.9402 39.23C29.9002 39.26 29.8702 39.3 29.8302 39.32C29.7102 39.37 29.8902 39.35 29.8302 39.37C29.6802 39.44 29.7402 39.49 29.8002 39.5C29.8602 39.51 29.7402 39.58 29.8402 39.57C29.8802 39.57 29.8802 39.63 29.8902 39.67C29.8902 39.71 29.8302 39.71 29.7902 39.73C29.8302 39.76 29.8802 39.76 29.9702 39.73C30.0302 39.71 30.0902 39.7 30.1502 39.69C30.1702 39.69 30.2302 39.69 30.1802 39.72C30.0602 39.76 30.1402 39.8 30.0702 39.84C30.0502 39.84 30.0502 39.87 30.0402 39.89C30.0802 39.88 30.1202 39.87 30.1502 39.86C30.1802 39.84 30.1902 39.82 30.2202 39.8C30.3502 39.7 30.5102 39.68 30.5902 39.74C30.6102 39.75 30.6502 39.76 30.6602 39.78C30.6602 39.8 30.6302 39.84 30.6502 39.84C30.7602 39.88 30.7202 39.94 30.6302 40.02C30.5902 40.05 30.5602 40.09 30.5302 40.12C30.5002 40.15 30.4802 40.19 30.4602 40.22C30.5202 40.2 30.5902 40.18 30.6402 40.15C30.7502 40.08 30.8902 40.03 30.9502 39.95C30.9802 39.91 31.0002 39.93 31.0302 39.93C31.0702 39.93 31.1302 39.89 31.1302 39.93C31.1302 39.96 31.1602 39.99 31.1302 40.02C31.0402 40.12 30.9402 40.22 30.8402 40.32C30.8102 40.35 30.7502 40.38 30.7502 40.39C30.8002 40.47 30.6502 40.52 30.6002 40.59C30.5602 40.64 30.5102 40.7 30.4602 40.75C30.4202 40.73 30.3802 40.71 30.3402 40.69L30.3902 40.67ZM39.4302 37.27C39.4302 37.27 39.4302 37.27 39.4302 37.26C39.5802 37.41 39.5702 37.54 39.3702 37.63C39.3202 37.65 39.2702 37.67 39.2102 37.68C39.2502 37.55 39.3102 37.42 39.4202 37.27H39.4302ZM37.9302 35.05C37.8702 35.07 37.8302 35.08 37.8902 35.02C37.9202 34.99 37.9802 34.94 37.9202 34.93C37.8902 34.93 37.8302 34.95 37.7902 34.96C37.7602 34.96 37.7402 34.98 37.7202 35C37.6902 35.03 37.6602 35.04 37.6302 35.05C37.6302 35.05 37.6202 35.05 37.6102 35.03C37.6302 35.02 37.6602 35.01 37.6802 35C37.6802 35 37.7002 35 37.7202 35C37.7202 34.98 37.7202 34.95 37.7402 34.95C37.8002 34.93 37.8102 34.9 37.7802 34.88C37.7602 34.88 37.6902 34.9 37.6902 34.88C37.6902 34.86 37.6902 34.84 37.6902 34.82C37.8002 34.77 37.8802 34.82 37.9502 34.92C37.9802 34.96 38.0102 35 38.0402 35.04C38.0002 35.04 37.9602 35.04 37.9202 35.06L37.9302 35.05ZM31.0302 40.59C31.0302 40.59 31.0202 40.59 31.0102 40.59C31.1402 40.56 31.2602 40.59 31.3902 40.56C31.4002 40.56 31.4202 40.58 31.4302 40.59C31.5002 40.64 31.3802 40.71 31.3702 40.76C31.4202 40.74 31.4802 40.72 31.5202 40.69C31.7202 40.55 31.9702 40.45 32.1702 40.32C32.2002 40.3 32.2602 40.28 32.3002 40.27C32.3702 40.25 32.3802 40.27 32.3902 40.31C32.4002 40.37 32.3702 40.42 32.3102 40.47C32.2002 40.56 32.0802 40.65 31.9602 40.74C31.7302 40.91 31.5002 41.09 31.2702 41.27C31.2002 41.19 31.1402 41.11 31.0402 41.06C31.0102 41.04 30.9902 40.97 30.9902 40.94C30.9902 40.87 31.0102 40.8 31.0402 40.75C31.0702 40.7 31.1402 40.66 31.0202 40.6L31.0302 40.59ZM30.6302 36.26C30.7002 36.28 30.7202 36.35 30.6602 36.43C30.6102 36.5 30.5702 36.57 30.6102 36.63C30.6202 36.65 30.6002 36.69 30.5802 36.72C30.5102 36.81 30.4402 36.89 30.3702 36.97C30.3102 37.05 30.2402 37.13 30.1802 37.2C30.1702 37.21 30.1702 37.24 30.1802 37.24C30.2602 37.24 30.2202 37.27 30.1902 37.3C30.1702 37.33 30.1702 37.36 30.1702 37.38C30.1702 37.41 30.1402 37.45 30.1602 37.45C30.2102 37.46 30.2302 37.48 30.2102 37.52C30.1702 37.59 30.1802 37.66 30.1002 37.74C30.0902 37.75 30.0802 37.77 30.0702 37.78V37.75C30.0702 37.75 30.0702 37.68 30.0702 37.64C30.0702 37.57 30.0702 37.51 30.0702 37.44C30.0702 37.35 30.0402 37.27 30.0302 37.2C30.0102 37.11 30.0802 37.13 30.0902 37.1C30.1102 37.01 30.0602 36.92 29.9702 36.9C29.9202 36.9 29.9002 36.91 29.8802 36.94C29.8802 36.97 29.8802 37.01 29.8802 37.03C29.9002 37.2 29.8102 37.36 29.9302 37.62C29.9302 37.63 29.9402 37.69 29.9302 37.72C29.9102 37.8 29.9002 37.81 29.8702 37.84C29.8902 37.84 29.9102 37.86 29.9302 37.87C29.9502 37.89 29.9702 37.9 29.9902 37.92C30.0002 37.94 30.0202 37.96 30.0302 37.98C30.0302 37.99 30.0302 38.01 30.0402 38.02C30.0402 38.09 30.0602 38.15 30.0702 38.22C30.0702 38.22 30.0802 38.22 30.0902 38.22C30.1002 38.28 30.1102 38.33 30.1202 38.38C30.0702 38.42 30.0802 38.46 30.0402 38.49C30.0602 38.49 30.0902 38.47 30.1202 38.46C30.1102 38.5 30.1202 38.54 30.1202 38.57C30.0502 38.64 29.9802 38.71 29.9102 38.78C29.8702 38.82 29.8102 38.86 29.9502 38.82C30.0802 38.78 30.1102 38.82 30.0602 38.89C30.0602 38.91 30.0302 38.93 30.0102 38.94C29.9802 38.96 29.9202 38.98 29.9202 38.97C29.8402 38.89 29.6502 38.97 29.5102 38.97C29.5002 38.97 29.4802 38.97 29.4602 38.98C29.4302 38.87 29.4002 38.76 29.3802 38.64C29.3802 38.59 29.3102 38.56 29.3402 38.45C29.3702 38.37 29.3902 38.29 29.4102 38.21C29.4202 38.14 29.4302 38.04 29.4202 37.99C29.4202 37.94 29.4002 37.86 29.3802 37.82C29.3702 37.78 29.3402 37.75 29.3202 37.65C29.2602 37.47 29.2902 37.43 29.4302 37.4C29.4302 37.32 29.4402 37.27 29.4502 37.22C29.4502 37.17 29.4602 37.12 29.4902 37.08C29.5702 36.93 29.3802 36.97 29.4302 36.83C29.4502 36.75 29.4302 36.65 29.4202 36.55C29.4202 36.42 29.4502 36.23 29.4002 36.16C29.3602 36.1 29.3702 36.02 29.4002 35.94C29.4302 35.86 29.4602 35.78 29.4602 35.71C29.4602 35.53 29.6102 35.38 29.7902 35.25C29.8502 35.21 29.9002 35.16 29.9502 35.1C29.9502 35.12 29.9502 35.14 29.9902 35.13C30.0702 35.11 30.1702 35.13 30.2502 35.13C30.4502 35.16 30.6402 35.07 30.8402 35.12C30.8502 35.12 30.9302 35.15 30.9702 35.07C31.0102 34.98 31.1302 34.91 31.2702 34.94C31.3902 34.97 31.5002 34.97 31.6102 34.9C31.6402 34.88 31.7102 34.89 31.7602 34.9C31.8902 34.93 32.0102 34.98 32.1402 35.02C32.1202 35.02 32.1002 35.02 32.0802 35.02C31.9802 35.04 31.8802 35.06 31.8202 35.15L31.9202 35.12C31.9202 35.12 31.9102 35.16 31.8902 35.18C31.8402 35.22 31.7802 35.26 31.7302 35.23C31.6202 35.27 31.5702 35.35 31.4802 35.4C31.4502 35.41 31.4102 35.42 31.3802 35.43C31.3802 35.43 31.3802 35.41 31.3802 35.39C31.4002 35.32 31.4002 35.32 31.2902 35.36C31.2202 35.39 31.1702 35.42 31.1502 35.47C31.1302 35.5 31.1102 35.52 31.1102 35.55C31.1002 35.61 31.0302 35.55 31.0002 35.6C30.9702 35.65 30.9302 35.71 30.8802 35.76C30.7702 35.89 30.7802 36.01 30.6702 36.13C30.6702 36.13 30.6202 36.19 30.6702 36.21L30.6302 36.26ZM30.5402 39.34C30.5402 39.34 30.5402 39.3 30.5402 39.28C30.5402 39.26 30.5402 39.24 30.5402 39.22C30.6102 39.22 30.6702 39.24 30.6602 39.27C30.6502 39.29 30.6202 39.32 30.5802 39.34C30.5802 39.34 30.5602 39.34 30.5502 39.34H30.5402ZM32.8102 41.4C32.8102 41.4 32.7902 41.46 32.7602 41.47C32.6302 41.52 32.5202 41.59 32.4202 41.67C32.3802 41.7 32.3102 41.71 32.2602 41.74C32.2302 41.76 32.2202 41.79 32.2002 41.81C32.2202 41.81 32.2502 41.81 32.2702 41.8C32.3802 41.78 32.4802 41.76 32.5902 41.71C32.6402 41.69 32.6902 41.71 32.6702 41.75C32.6502 41.79 32.6102 41.83 32.5802 41.87C32.5602 41.91 32.5102 41.95 32.5202 41.97C32.5202 42.02 32.5002 42.08 32.4602 42.14C32.4202 42.11 32.3702 42.09 32.3202 42.07C32.1802 42.01 32.0502 41.98 31.9602 41.91C31.8702 41.84 31.8102 41.77 31.7902 41.69C31.7902 41.66 31.7302 41.61 31.7002 41.6C31.7802 41.56 31.8802 41.51 31.9502 41.45C32.0302 41.38 32.1302 41.33 32.2202 41.27C32.2502 41.25 32.2802 41.23 32.3102 41.22L32.9002 40.88C33.0102 40.82 33.1502 40.8 33.2002 40.85C33.2202 40.87 33.2302 40.89 33.2302 40.92C33.2302 40.97 33.1402 40.97 33.1002 40.99C33.1002 40.99 33.0902 41 33.0802 41.01L33.0302 41.06C33.0302 41.06 33.0802 41.06 33.1002 41.05L33.5702 40.88C33.5702 40.88 33.6202 40.88 33.6402 40.87C33.6202 40.88 33.6002 40.9 33.5702 40.91L33.3202 41.02C33.0902 41.12 32.9802 41.28 32.8002 41.4H32.8102ZM37.4502 34.85C37.4502 34.85 37.5302 34.8 37.5602 34.8C37.5702 34.8 37.5902 34.8 37.6102 34.81C37.5702 34.82 37.5302 34.84 37.4902 34.85C37.4702 34.85 37.4402 34.85 37.4202 34.85C37.4202 34.85 37.4302 34.85 37.4402 34.84L37.4502 34.85ZM35.1602 26.65C35.1602 26.65 35.1602 26.67 35.1602 26.68C35.1602 26.76 35.1202 26.77 35.0002 26.75C34.8002 26.71 34.6102 26.68 34.3902 26.72C34.3302 26.73 34.2702 26.74 34.2202 26.73C33.9302 26.67 33.6202 26.65 33.3202 26.6C33.3802 26.56 33.2902 26.5 33.5402 26.47C33.7202 26.45 33.9702 26.4 34.0802 26.42C34.3002 26.45 34.5002 26.49 34.7002 26.54C34.8502 26.57 35.0002 26.61 35.1502 26.65H35.1602ZM31.3502 27.58C31.3502 27.58 31.3202 27.54 31.3102 27.51C31.3102 27.51 31.3302 27.49 31.3302 27.47C31.3202 27.47 31.3102 27.47 31.3002 27.47C31.3002 27.47 31.3202 27.47 31.3302 27.46C31.3802 27.49 31.4002 27.52 31.4102 27.55C31.4102 27.55 31.3702 27.57 31.3602 27.58H31.3502ZM29.1202 36.89C29.1202 36.89 29.1702 36.91 29.1902 36.93C29.2002 36.95 29.2202 36.98 29.2202 37C29.2202 37.07 29.3102 37.09 29.2302 37.2C29.2002 37.24 29.1802 37.29 29.1602 37.36C29.1402 37.42 29.1102 37.46 29.0802 37.39C29.0202 37.37 28.9902 37.38 28.9702 37.34C28.9402 37.28 28.9102 37.19 28.9202 37.18C28.9802 37.06 29.0602 36.96 29.1302 36.88L29.1202 36.89ZM39.7702 26.18C39.6102 26.11 39.4502 26.04 39.3102 25.96C39.1402 25.87 38.9402 25.8 38.7402 25.73C38.5502 25.66 38.3602 25.59 38.2002 25.5C38.1802 25.49 38.1502 25.48 38.1202 25.47C38.1702 25.42 38.3102 25.44 38.6002 25.49C38.7502 25.52 38.8802 25.56 38.9902 25.59L39.0402 25.63C39.0402 25.63 39.0602 25.62 39.0602 25.61C39.1902 25.66 39.2902 25.72 39.3702 25.78C39.5602 25.91 39.7202 26.06 39.8702 26.21C39.8302 26.19 39.8002 26.18 39.7602 26.16L39.7702 26.18ZM28.5502 29.37C28.5802 29.45 28.5502 29.56 28.7402 29.52C28.7402 29.52 28.7602 29.5 28.7602 29.52C28.7902 29.49 28.8102 29.49 28.8102 29.49C28.8102 29.51 28.7902 29.52 28.7902 29.54H28.7602C28.7602 29.62 28.7002 29.66 28.6502 29.67C28.6502 29.65 28.6402 29.66 28.6102 29.67C28.6102 29.67 28.6002 29.67 28.5902 29.67C28.5102 29.62 28.5102 29.52 28.4602 29.45C28.4602 29.45 28.4602 29.45 28.4502 29.45C28.4902 29.43 28.5302 29.41 28.5602 29.39L28.5502 29.37ZM28.1402 29.8C28.1402 29.8 28.1202 29.8 28.1102 29.8C28.0902 29.8 28.0702 29.8 28.0402 29.79C28.0602 29.76 28.0902 29.72 28.1202 29.69C28.1302 29.68 28.1702 29.67 28.2002 29.66L28.1402 29.8ZM50.2702 18.93C50.2002 18.95 50.2102 19 50.1202 18.96C49.9802 18.91 49.6602 18.76 49.6102 18.72C49.4002 18.56 49.2002 18.41 49.0102 18.27C48.9102 18.2 48.8202 18.12 48.7202 18.05C48.6202 17.98 48.5202 17.92 48.4302 17.85C48.3702 17.81 48.4802 17.82 48.5602 17.84C48.6102 17.84 48.7302 17.89 48.8402 17.94C49.1102 18.09 49.1702 18.01 49.6302 18.37C49.9202 18.6 50.6702 19.07 50.2802 18.92L50.2702 18.93ZM31.4202 17.96C31.4802 17.96 31.5402 17.94 31.5902 17.95C31.5302 17.95 31.4802 17.95 31.4202 17.96ZM28.7402 28.47C28.5902 28.56 28.4202 28.64 28.2602 28.72C28.2302 28.73 28.2002 28.72 28.1802 28.72C28.1402 28.65 28.4602 28.39 28.6602 28.32C28.7702 28.28 28.8902 28.28 28.9402 28.3C28.9602 28.31 28.8302 28.42 28.7502 28.47H28.7402ZM28.2002 29.5C28.2002 29.5 28.1602 29.54 28.1102 29.55C28.0902 29.55 28.0602 29.55 28.0402 29.52C28.0702 29.49 28.0902 29.46 28.1202 29.48C28.1402 29.49 28.1702 29.5 28.2002 29.5ZM27.8502 29.64C27.8502 29.64 27.9102 29.73 27.9102 29.78C27.8302 29.77 27.7302 29.79 27.5502 29.89C27.4702 29.94 27.3502 29.98 27.3202 29.96C27.2802 29.94 27.3202 29.87 27.3402 29.8C27.3802 29.71 27.4702 29.69 27.5402 29.67C27.6502 29.65 27.7902 29.61 27.8502 29.63V29.64ZM22.6102 20.98C22.7502 20.93 22.8902 20.89 23.0202 20.84C22.8202 20.98 22.5802 21.13 22.3402 21.27C22.3302 21.25 22.3202 21.23 22.3102 21.22C22.3102 21.19 22.3402 21.12 22.3602 21.07C22.4402 21.04 22.5302 21.01 22.6102 20.99V20.98ZM20.0302 21.89L20.4002 21.73C20.4002 21.73 20.4602 21.71 20.4802 21.69C20.1802 21.97 19.8602 22.24 19.5702 22.53C18.9102 23.15 18.3102 23.62 18.0702 23.71C18.0102 23.73 17.9402 23.77 17.8702 23.81C17.9202 23.69 17.8102 23.7 17.6802 23.78C17.3202 23.99 17.2702 23.9 17.2002 23.83C17.1402 23.77 17.2502 23.67 17.5102 23.47C17.6202 23.39 17.7302 23.31 17.8402 23.22C17.9602 23.15 18.0702 23.07 18.1902 22.99C18.3102 22.91 18.4202 22.83 18.5402 22.74C18.6002 22.7 18.6602 22.65 18.7202 22.61C18.7802 22.57 18.8502 22.53 18.9102 22.48C19.0402 22.39 19.2002 22.28 19.3202 22.22C19.4402 22.16 19.5502 22.1 19.6702 22.05C19.7902 22 19.9202 21.95 20.0402 21.89H20.0302ZM56.4502 23.32C56.3802 23.22 56.3002 23.12 56.2202 23.01C56.2202 23.01 56.2302 23.01 56.2402 23.01C56.3002 23.01 56.3602 23.11 56.4502 23.32ZM58.8902 34.75C58.7302 35.1 58.5402 35.49 58.3802 35.7C58.3302 35.76 58.2002 36.18 58.1702 36.17C58.0902 36.17 57.9902 36.23 57.8902 36.33C57.9302 36.06 57.9702 35.81 58.0102 35.56C58.0702 35.48 58.0902 35.45 58.1102 35.42C58.1102 35.35 58.1102 35.25 58.1102 35.22C58.1102 35.2 58.0802 35.24 58.0602 35.27C58.1602 34.67 58.2502 34.08 58.2502 33.36C58.2502 33.2 58.2902 32.93 58.3102 32.85C58.3702 32.66 58.4202 32.49 58.4802 32.42C58.5302 32.35 58.6102 32.46 58.5602 31.88C58.7102 31.61 58.8602 31.34 58.9802 31.06C59.0302 30.95 59.0902 30.98 59.1602 31.11C59.2002 31.17 59.2302 31.27 59.2602 31.38C59.2902 31.5 59.3102 31.63 59.3202 31.79C59.3502 32.04 59.3602 32.34 59.3402 32.6C59.3102 33.03 59.2402 32.73 59.1902 32.85C59.1902 32.87 59.1802 32.92 59.1702 32.96C59.1502 33.07 59.1302 33.18 59.0902 33.3C59.1102 33.36 59.1202 33.46 59.1502 33.46C59.3102 33.49 59.4802 33.49 59.6402 33.51C59.6602 33.51 59.6802 33.62 59.7002 33.68C59.6702 33.73 59.6402 33.8 59.6102 33.83C59.5102 33.9 59.4102 33.95 59.3202 34C59.1902 34.07 59.0302 34.39 58.8802 34.74L58.8902 34.75ZM65.3002 29.67C65.1502 29.89 64.9902 30.03 64.8302 30.23C64.8002 30.27 64.7702 30.37 64.7702 30.55C64.8002 31.8 64.6102 32.31 64.4702 33.37C64.3902 33.81 64.3302 33.99 64.3002 33.91C64.2602 33.83 64.2802 33.51 64.2402 32.94C64.2302 32.7 64.2102 32.44 64.2002 32.19C64.1702 31.94 64.1502 31.69 64.1402 31.45C64.1402 31.3 64.1502 31.16 64.1802 31.03C64.2002 30.9 64.2202 30.77 64.2302 30.64C64.2602 30.27 64.2602 29.79 64.1602 29.14C64.1302 28.91 64.1002 28.68 64.0702 28.45C64.0402 28.25 64.0102 28.06 63.9802 27.87C63.9202 27.49 63.8702 27.12 63.8402 26.8C63.7702 26.25 63.6602 25.65 63.5402 25.04C63.4102 24.43 63.2502 23.8 63.1102 23.19C63.0002 22.77 63.0502 22.72 63.2102 23.12C63.3902 23.6 63.5402 23.98 63.7002 24.31C63.8602 24.64 64.0002 24.94 64.1402 25.25C64.2102 25.4 64.2902 25.65 64.3902 25.92C64.4302 26.14 64.4802 26.36 64.5002 26.52C64.5202 26.73 64.5202 26.9 64.5202 27.09C64.5702 27.11 64.6302 27.15 64.6802 27.15C64.7202 27.15 64.7602 27.15 64.7902 27.12C64.8402 27.07 64.9102 27.24 65.0002 27.64C65.0302 27.77 65.0602 27.89 65.0902 28.02L65.1402 28.21C65.1602 28.27 65.1702 28.36 65.1902 28.44C65.3402 29.2 65.3502 29.57 65.2802 29.67H65.3002ZM65.5002 29.24C65.4502 29.13 65.4102 29.04 65.3702 28.95C65.3702 28.73 65.3302 28.41 65.3502 28.34C65.3602 28.3 65.4702 28.72 65.5402 28.93C65.5302 29.04 65.5102 29.14 65.5002 29.25V29.24Z" fill="#ED1C24"/>
<path fill-rule="evenodd" clip-rule="evenodd" d="M1.92975 19.5702C2.02975 19.3902 2.07975 19.3002 2.12975 19.2202C1.97975 19.3802 1.83975 19.5402 1.68975 19.7002C1.68975 19.7402 1.63974 19.8402 1.66974 19.8102C1.73974 19.7502 1.83974 19.6402 1.91974 19.5602L1.92975 19.5702Z" fill="#ED1C24"/>
<path fill-rule="evenodd" clip-rule="evenodd" d="M0.84938 22.8799C0.79938 22.8899 0.719384 22.9599 0.649384 22.9999C0.639384 23.0699 0.619375 23.1399 0.609375 23.2299C0.679375 23.1699 0.749382 23.1099 0.819382 23.0499C0.829382 22.9899 0.879375 22.8799 0.859375 22.8799H0.84938Z" fill="#ED1C24"/>
<path fill-rule="evenodd" clip-rule="evenodd" d="M59.3694 12.2901C59.2894 12.1501 59.1994 12.0101 59.0894 11.8501C59.0494 11.7901 58.9394 11.6701 58.8594 11.5801C58.9494 11.7501 59.0394 11.9201 59.1294 12.0901C59.1794 12.1401 59.2394 12.1801 59.3594 12.2901H59.3694Z" fill="#ED1C24"/>
<path fill-rule="evenodd" clip-rule="evenodd" d="M0.049351 25.5302C0.029351 25.6302 -0.0106423 25.7402 0.00935774 25.7402C0.0393577 25.7402 0.0993571 25.6602 0.149357 25.6202C0.159357 25.5602 0.199356 25.4502 0.179356 25.4502C0.149356 25.4502 0.099351 25.5002 0.049351 25.5402V25.5302Z" fill="#ED1C24"/>
<path fill-rule="evenodd" clip-rule="evenodd" d="M9.43961 10.8901C9.37961 10.9001 9.2896 10.9301 9.2196 10.9601C9.1896 11.0101 9.14961 11.0501 9.09961 11.1201C9.16961 11.0901 9.23961 11.0601 9.31961 11.0201C9.35961 10.9801 9.44961 10.8901 9.43961 10.9001V10.8901Z" fill="#ED1C24"/>
<path fill-rule="evenodd" clip-rule="evenodd" d="M16.3307 12.8398C16.1207 12.9798 16.0507 13.0398 15.9707 13.0898C16.0607 13.0498 16.1407 13.0198 16.2307 12.9698C16.3007 12.9298 16.3807 12.8698 16.4507 12.8198C16.4007 12.8198 16.3407 12.8398 16.3207 12.8398H16.3307Z" fill="#ED1C24"/>
<path fill-rule="evenodd" clip-rule="evenodd" d="M3.93056 17.7002C3.86056 17.7602 3.81058 17.8002 3.76058 17.8402C3.74058 17.9102 3.70056 17.9902 3.71056 18.0202C3.71056 18.0402 3.80059 17.9502 3.86059 17.9102C3.89059 17.8402 3.92057 17.7602 3.94057 17.7002H3.93056Z" fill="#ED1C24"/>
<path fill-rule="evenodd" clip-rule="evenodd" d="M7.87109 17.3099C7.94109 17.3099 7.83111 17.5099 8.20111 17.1399C8.13111 17.1399 8.24109 16.9399 7.87109 17.3099Z" fill="#ED1C24"/>
<path fill-rule="evenodd" clip-rule="evenodd" d="M0.429688 22.9798C0.429688 22.9798 0.479689 22.9198 0.509689 22.8898C0.519689 22.8498 0.529683 22.7998 0.549683 22.7598C0.519683 22.7998 0.489681 22.8298 0.469681 22.8698C0.459681 22.9098 0.439682 22.9698 0.439682 22.9898L0.429688 22.9798Z" fill="#ED1C24"/>
<path fill-rule="evenodd" clip-rule="evenodd" d="M0.439753 22.4198C0.439753 22.4198 0.38976 22.5398 0.39976 22.5298C0.41976 22.5198 0.459756 22.4798 0.489756 22.4498C0.499756 22.4098 0.519759 22.3698 0.539759 22.3198C0.509759 22.3498 0.469753 22.3898 0.439753 22.4198Z" fill="#ED1C24"/>
<path fill-rule="evenodd" clip-rule="evenodd" d="M0.371017 21.9501C0.371017 21.9501 0.391011 21.8601 0.411011 21.8101C0.381011 21.8501 0.351014 21.8801 0.321014 21.9201C0.321014 21.9601 0.291016 22.0201 0.291016 22.0401C0.291016 22.0401 0.341017 21.9801 0.371017 21.9501Z" fill="#ED1C24"/>
<path fill-rule="evenodd" clip-rule="evenodd" d="M1.46046 20.2002C1.46046 20.2002 1.37046 20.2802 1.33046 20.3202C1.30046 20.3702 1.27047 20.4102 1.23047 20.4602C1.26047 20.4402 1.29046 20.4302 1.33046 20.3902C1.34046 20.3802 1.41045 20.2602 1.45045 20.2002H1.46046Z" fill="#ED1C24"/>
<path fill-rule="evenodd" clip-rule="evenodd" d="M2.8797 18.4099C2.8797 18.4099 2.8297 18.4599 2.7897 18.4899C2.7497 18.5599 2.71969 18.6199 2.67969 18.6799L2.79971 18.5599C2.82971 18.5099 2.8597 18.4499 2.8797 18.3999V18.4099Z" fill="#ED1C24"/>
<path fill-rule="evenodd" clip-rule="evenodd" d="M3.8096 18.1699C3.8096 18.1699 3.7596 18.2199 3.7196 18.2499C3.6796 18.3099 3.63961 18.3699 3.59961 18.4399C3.63961 18.3999 3.6796 18.3599 3.7196 18.3199C3.7496 18.2699 3.77962 18.2099 3.79962 18.1699H3.8096Z" fill="#ED1C24"/>
<path fill-rule="evenodd" clip-rule="evenodd" d="M58.541 32.6601C58.541 32.6601 58.551 32.7601 58.561 32.7601C58.571 32.7401 58.591 32.7001 58.601 32.6701C58.601 32.6401 58.591 32.6001 58.581 32.5601C58.571 32.6001 58.551 32.6301 58.541 32.6701V32.6601Z" fill="#ED1C24"/>
<path fill-rule="evenodd" clip-rule="evenodd" d="M45.8195 13.2701L45.8395 13.2501C45.7695 13.2101 45.6995 13.1701 45.6395 13.1401C45.6195 13.1401 45.6495 13.1801 45.6595 13.1901L45.8195 13.2601V13.2701Z" fill="#ED1C24"/>
<path fill-rule="evenodd" clip-rule="evenodd" d="M44.2109 12.4901C44.1609 12.4501 44.111 12.4101 44.051 12.3801C44.031 12.3701 43.9909 12.3601 43.9609 12.3501C44.0109 12.3901 44.0709 12.4201 44.1209 12.4601C44.1609 12.4701 44.1909 12.4801 44.2209 12.5001L44.2109 12.4901Z" fill="#ED1C24"/>
<path fill-rule="evenodd" clip-rule="evenodd" d="M1.11954 20.5399C1.08954 20.6199 1.04953 20.6999 1.01953 20.7799C1.08953 20.6699 1.15953 20.57 1.21953 20.46L1.10953 20.5399H1.11954Z" fill="#ED1C24"/>
<path fill-rule="evenodd" clip-rule="evenodd" d="M8.81 10.71C8.81 10.71 8.72001 10.7499 8.70001 10.7799C8.63001 10.8399 8.57 10.9 8.5 10.96C8.54 10.94 8.59002 10.92 8.61002 10.89C8.68002 10.83 8.74 10.7699 8.81 10.7199V10.71Z" fill="#ED1C24"/>
<path fill-rule="evenodd" clip-rule="evenodd" d="M7.4306 48.79C7.1906 48.52 6.86061 48.12 6.75061 48.03C6.62061 47.94 6.67062 48.16 6.64062 48.25C6.85062 48.52 7.07062 48.79 7.29062 49.06C7.69062 49.55 7.64061 49.33 7.72061 49.31C7.72061 49.31 7.7406 49.31 7.7406 49.29C7.7406 49.24 7.73061 49.18 7.72061 49.13C7.62061 49.01 7.5206 48.88 7.4306 48.79Z" fill="#ED1C24"/>
<path fill-rule="evenodd" clip-rule="evenodd" d="M17.4698 55.51C17.3598 55.46 17.2499 55.41 17.0699 55.33C16.8999 55.25 16.6598 55.17 16.3398 55C16.6198 55.18 16.7998 55.28 16.9398 55.36C17.0798 55.44 17.1598 55.48 17.2498 55.52C17.5098 55.64 17.9099 55.86 17.8899 55.76C17.8899 55.74 17.6399 55.58 17.4799 55.51H17.4698Z" fill="#ED1C24"/>
<path fill-rule="evenodd" clip-rule="evenodd" d="M6.24975 42.9998C6.19975 42.8998 6.15977 42.8098 6.13977 42.8098C6.05977 42.7898 5.97977 42.7798 6.10977 43.2498C6.13977 43.3298 6.18977 43.4798 6.19977 43.4998C6.39977 43.8098 6.21977 43.3098 6.22977 43.1898C6.22977 43.1298 6.23975 43.0798 6.24975 42.9998Z" fill="#ED1C24"/>
<path fill-rule="evenodd" clip-rule="evenodd" d="M17.5793 13.4701C17.6793 13.3501 17.2393 13.5201 16.9993 13.5801C16.9293 13.6301 16.7893 13.7101 16.7993 13.7101C16.9693 13.6901 17.1593 13.6501 17.3693 13.6201C17.4793 13.5401 17.5593 13.5001 17.5793 13.4801V13.4701Z" fill="#ED1C24"/>
<path fill-rule="evenodd" clip-rule="evenodd" d="M42.2202 15.0299C42.3902 15.0499 42.5202 15.0799 42.6602 15.0999C42.5302 15.0599 42.4002 15.0099 42.2602 14.9899C41.9802 14.9599 41.6902 14.9399 41.4102 14.9199C41.4702 14.9499 41.5402 14.9799 41.5702 14.9899C41.8402 15.0099 42.0402 15.0299 42.2202 15.0399V15.0299Z" fill="#ED1C24"/>
<path fill-rule="evenodd" clip-rule="evenodd" d="M6.57117 44.8801C6.57117 44.8801 6.47117 44.7701 6.48117 44.8001C6.50117 44.8901 6.55118 45.0401 6.58118 45.1601C6.70118 45.3501 6.75116 45.4401 6.81116 45.5201L6.57117 44.8801Z" fill="#ED1C24"/>
<path fill-rule="evenodd" clip-rule="evenodd" d="M51.1006 19.09L50.7006 18.69C50.6106 18.64 50.5205 18.6 50.3105 18.52C50.5205 18.67 50.6306 18.77 50.7606 18.87C50.8706 18.95 50.9906 19.02 51.1106 19.09H51.1006Z" fill="#ED1C24"/>
<path fill-rule="evenodd" clip-rule="evenodd" d="M14.6699 52.73C14.6699 52.73 14.7199 52.8 14.7399 52.83C14.8599 52.9 14.9799 52.97 15.0299 53C14.9499 52.9 14.9199 52.86 14.8999 52.82C14.8199 52.79 14.7099 52.73 14.6699 52.73Z" fill="#ED1C24"/>
<path fill-rule="evenodd" clip-rule="evenodd" d="M12.2011 50.5702C12.2011 50.5702 12.3011 50.6502 12.3011 50.6402C12.3011 50.6202 12.2611 50.5702 12.2411 50.5302C12.2011 50.5002 12.1711 50.4802 12.1211 50.4502C12.1511 50.4902 12.1711 50.5302 12.2011 50.5702Z" fill="#ED1C24"/>
<path fill-rule="evenodd" clip-rule="evenodd" d="M6.34976 23.1301C6.31976 23.2101 6.28977 23.2901 6.25977 23.3601H6.27975C6.31975 23.2701 6.36975 23.1601 6.39975 23.0801C6.39975 23.0501 6.35975 23.1101 6.33975 23.1201L6.34976 23.1301Z" fill="#ED1C24"/>
<path fill-rule="evenodd" clip-rule="evenodd" d="M16.9408 55.4502C16.9408 55.4502 16.8508 55.4202 16.8008 55.4102C16.8408 55.4402 16.8808 55.4702 16.9108 55.5102C16.9508 55.5202 17.0408 55.5502 17.0308 55.5502C17.0208 55.5302 16.9708 55.4902 16.9308 55.4602L16.9408 55.4502Z" fill="#ED1C24"/>
<path fill-rule="evenodd" clip-rule="evenodd" d="M25.291 57.25C25.371 57.27 25.451 57.28 25.541 57.3C25.591 57.3 25.641 57.3 25.681 57.3C25.601 57.28 25.511 57.27 25.421 57.25C25.391 57.25 25.341 57.25 25.291 57.25Z" fill="#ED1C24"/>
<path fill-rule="evenodd" clip-rule="evenodd" d="M7.42935 20.9698C7.39935 21.0198 7.37937 21.0598 7.35938 21.0998C7.41937 21.0298 7.47936 20.9598 7.52936 20.8798C7.54936 20.8498 7.56936 20.7998 7.58936 20.7598C7.52936 20.8298 7.46937 20.8998 7.41937 20.9698H7.42935Z" fill="#ED1C24"/>
<path fill-rule="evenodd" clip-rule="evenodd" d="M5.49023 43.8901C5.52023 43.9801 5.54025 44.0601 5.57025 44.1401C5.60025 44.1901 5.62024 44.2301 5.65024 44.2701C5.62024 44.1801 5.60024 44.1001 5.56024 44.0101C5.55024 43.9801 5.52023 43.9301 5.49023 43.8901Z" fill="#ED1C24"/>
<path fill-rule="evenodd" clip-rule="evenodd" d="M20.2501 12.3501C20.2501 12.3501 20.1401 12.4101 20.0801 12.4501C20.1301 12.4401 20.1801 12.4301 20.2301 12.4201C20.2701 12.4001 20.3201 12.3801 20.3601 12.3501C20.3301 12.3501 20.3001 12.3501 20.2501 12.3501Z" fill="#ED1C24"/>
<path fill-rule="evenodd" clip-rule="evenodd" d="M48.2094 17.0902C48.2094 17.0902 48.1395 17.0402 48.0995 17.0102C48.0495 17.0002 47.9895 16.9802 47.9395 16.9702C47.9895 17.0002 48.0295 17.0302 48.0695 17.0602C48.1195 17.0602 48.1794 17.0902 48.2094 17.0902Z" fill="#ED1C24"/>
<path fill-rule="evenodd" clip-rule="evenodd" d="M42.3003 11.8798C42.3003 11.8798 42.2303 11.8398 42.2003 11.8398C42.1303 11.8298 42.0602 11.8298 41.9902 11.8198C42.0202 11.8298 42.0602 11.8498 42.0902 11.8598C42.1702 11.8698 42.2303 11.8798 42.3003 11.8798Z" fill="#ED1C24"/>
<path fill-rule="evenodd" clip-rule="evenodd" d="M5.73047 47.01C5.77047 47.09 5.81046 47.18 5.85046 47.26C5.89046 47.31 5.92047 47.34 5.95047 47.38C5.91047 47.29 5.87047 47.21 5.82047 47.12C5.80047 47.09 5.76047 47.04 5.73047 47V47.01Z" fill="#ED1C24"/>
<path fill-rule="evenodd" clip-rule="evenodd" d="M30.3008 36.2201C30.3008 36.2201 30.3608 36.2201 30.3708 36.2001C30.4008 36.1701 30.4308 36.1301 30.4608 36.1101C30.4408 36.1101 30.4208 36.0901 30.4108 36.0801C30.3608 36.1501 30.3308 36.1801 30.3108 36.2201H30.3008Z" fill="#ED1C24"/>
<path fill-rule="evenodd" clip-rule="evenodd" d="M29.3906 37.5399C29.3906 37.5399 29.3906 37.6199 29.4106 37.6699C29.4406 37.6099 29.4806 37.5699 29.5106 37.5099C29.5006 37.4799 29.4806 37.4499 29.4506 37.3799C29.4306 37.4499 29.4006 37.4899 29.4006 37.5399H29.3906Z" fill="#ED1C24"/>
<path fill-rule="evenodd" clip-rule="evenodd" d="M29.6895 36.9302C29.6895 36.9302 29.7095 36.9602 29.7195 36.9702C29.7195 36.9702 29.7395 36.9702 29.7495 36.9502C29.7395 36.9402 29.7295 36.9202 29.7195 36.9102C29.7195 36.9102 29.6995 36.9202 29.6895 36.9302Z" fill="#ED1C24"/>
<path fill-rule="evenodd" clip-rule="evenodd" d="M40.5309 35.81C40.5309 35.81 40.571 35.76 40.551 35.76C40.551 35.75 40.5109 35.76 40.4609 35.75C40.4609 35.8 40.4609 35.82 40.4609 35.83C40.4809 35.84 40.4709 35.87 40.5209 35.81H40.5309Z" fill="#ED1C24"/>
<path fill-rule="evenodd" clip-rule="evenodd" d="M39.3906 34.8302C39.3906 34.8302 39.3906 34.7802 39.4006 34.7402C39.3806 34.7502 39.3706 34.7602 39.3706 34.7702C39.3506 34.8302 39.3206 34.9002 39.3506 34.9502L39.3706 34.9702C39.4206 34.9202 39.3906 34.8802 39.3906 34.8302Z" fill="#ED1C24"/>
<path fill-rule="evenodd" clip-rule="evenodd" d="M39.4006 35.33C39.4006 35.33 39.4406 35.3099 39.4506 35.3099L39.4206 35.21C39.4206 35.21 39.3906 35.2399 39.3906 35.2499C39.3906 35.2799 39.3906 35.3 39.3906 35.33H39.4006Z" fill="#ED1C24"/>
<path fill-rule="evenodd" clip-rule="evenodd" d="M41.08 34.76C41.08 34.76 41.04 34.77 41.02 34.78C41.01 34.78 41.01 34.81 41 34.82C41.02 34.82 41.04 34.82 41.05 34.82C41.07 34.78 41.07 34.76 41.08 34.75V34.76Z" fill="#ED1C24"/>
<path fill-rule="evenodd" clip-rule="evenodd" d="M31.5194 35.2002C31.5194 35.2002 31.4895 35.1702 31.4795 35.1602C31.4595 35.2002 31.4495 35.2102 31.4395 35.2202C31.4595 35.2202 31.4795 35.2302 31.4995 35.2302C31.5095 35.2302 31.5194 35.2102 31.5294 35.2002H31.5194Z" fill="#ED1C24"/>
<path fill-rule="evenodd" clip-rule="evenodd" d="M40.8093 34.4199C40.8093 34.4199 40.7893 34.4199 40.7793 34.4199V34.4599H40.7993C40.7993 34.4499 40.7993 34.4299 40.7993 34.4199H40.8093Z" fill="#ED1C24"/>
<path fill-rule="evenodd" clip-rule="evenodd" d="M40.4111 35.8599C40.4111 35.8599 40.4011 35.8598 40.3911 35.8698L40.3711 35.8999C40.3711 35.8999 40.3811 35.8999 40.3911 35.8999C40.3911 35.8999 40.4111 35.8798 40.4111 35.8698V35.8599Z" fill="#ED1C24"/>
<path fill-rule="evenodd" clip-rule="evenodd" d="M41.0302 35.7502C41.0302 35.7502 41.0203 35.7502 41.0103 35.7502H40.9902C40.9902 35.7502 41.0003 35.7502 41.0103 35.7502C41.0103 35.7502 41.0202 35.7502 41.0202 35.7402L41.0302 35.7502Z" fill="#ED1C24"/>
<path fill-rule="evenodd" clip-rule="evenodd" d="M41.2295 35.8501C41.2295 35.8501 41.2194 35.8501 41.2094 35.8501H41.1895C41.1895 35.8501 41.1994 35.8601 41.2094 35.8601C41.2094 35.8601 41.2195 35.8601 41.2295 35.8501Z" fill="#ED1C24"/>
<path fill-rule="evenodd" clip-rule="evenodd" d="M39.1094 35.7302V35.7502C39.1094 35.7502 39.1294 35.7402 39.1394 35.7402C39.1394 35.7402 39.1394 35.7202 39.1294 35.7202C39.1294 35.7202 39.1194 35.7202 39.1094 35.7302Z" fill="#ED1C24"/>
<path fill-rule="evenodd" clip-rule="evenodd" d="M31.2997 40.81C31.2997 40.81 31.3397 40.79 31.3797 40.77C31.3597 40.77 31.3497 40.77 31.3397 40.77C31.2797 40.79 31.2097 40.81 31.1797 40.86V40.88C31.2497 40.88 31.2697 40.83 31.3097 40.81H31.2997Z" fill="#ED1C24"/>
<path fill-rule="evenodd" clip-rule="evenodd" d="M30.0411 38.5198C30.0411 38.5198 30.0011 38.5198 29.9911 38.5198C29.9211 38.5298 29.9111 38.5698 29.8711 38.5998C29.8811 38.5998 29.9011 38.5998 29.9011 38.5998C29.9411 38.5698 29.9811 38.5498 30.0311 38.5098L30.0411 38.5198Z" fill="#ED1C24"/>
<path fill-rule="evenodd" clip-rule="evenodd" d="M32.4102 41.52C32.4102 41.52 32.4402 41.53 32.4402 41.54C32.4802 41.51 32.4902 41.5 32.5102 41.5C32.4902 41.5 32.4702 41.5 32.4502 41.5C32.4402 41.5 32.4202 41.52 32.4102 41.53V41.52Z" fill="#ED1C24"/>
<path fill-rule="evenodd" clip-rule="evenodd" d="M30.3594 36.6201C30.3594 36.6201 30.3794 36.6201 30.3894 36.6301C30.4094 36.6201 30.4294 36.6101 30.4294 36.6001C30.4094 36.5901 30.3994 36.5901 30.3894 36.5801C30.3894 36.5901 30.3694 36.6101 30.3694 36.6101L30.3594 36.6201Z" fill="#ED1C24"/>
<path fill-rule="evenodd" clip-rule="evenodd" d="M31.691 35.2799C31.691 35.2799 31.801 35.25 31.781 35.21C31.741 35.23 31.671 35.2399 31.691 35.2799Z" fill="#ED1C24"/>
<path fill-rule="evenodd" clip-rule="evenodd" d="M32.4609 41.21H32.481C32.491 41.21 32.501 41.1999 32.511 41.1899H32.4909L32.4609 41.21Z" fill="#ED1C24"/>
<path fill-rule="evenodd" clip-rule="evenodd" d="M29.7012 39.71H29.7312H29.7512C29.7512 39.71 29.7412 39.6999 29.7312 39.6899C29.7312 39.6899 29.7112 39.69 29.7012 39.71Z" fill="#ED1C24"/>
<path fill-rule="evenodd" clip-rule="evenodd" d="M30.0197 38.27L30.0498 38.25C30.0498 38.25 30.0198 38.25 30.0098 38.26C30.0098 38.26 30.0097 38.26 30.0197 38.27Z" fill="#ED1C24"/>
<path fill-rule="evenodd" clip-rule="evenodd" d="M57.9704 41.9199C57.9704 51.7899 48.1604 59.7899 36.0604 59.7899C23.9604 59.7899 14.1504 51.7899 14.1504 41.9199H57.9804H57.9704Z" fill="white"/>
<path fill-rule="evenodd" clip-rule="evenodd" d="M75.1203 10.7498C73.0803 11.6298 36.8003 27.7998 32.0303 29.8498C31.3203 30.1498 31.6403 29.2798 31.6403 29.2798C31.6403 29.2798 72.8703 9.94985 74.7303 9.15985C77.2003 8.09985 77.4603 9.73984 75.1103 10.7498H75.1203Z" fill="white"/>
<path fill-rule="evenodd" clip-rule="evenodd" d="M76.9009 16.7698C74.7709 17.4298 37.0009 29.7198 32.0409 31.2598C31.3009 31.4898 31.7109 30.6598 31.7109 30.6598C31.7109 30.6598 74.7509 15.7498 76.6809 15.1498C79.2509 14.3498 79.341 16.0198 76.891 16.7698H76.9009Z" fill="white"/>
<path fill-rule="evenodd" clip-rule="evenodd" d="M38.6711 30.4597C38.7011 29.9197 37.8511 29.9197 37.8311 30.4597C37.8011 30.9897 37.6711 31.5197 37.4811 32.0397C37.5111 31.5897 37.4611 31.1397 37.3111 30.6797C37.1411 30.1697 36.3311 30.3897 36.5011 30.8997C37.5211 33.9897 31.3211 37.7297 34.6711 40.2497C35.1011 40.5797 35.5211 39.8497 35.0911 39.5197C33.9811 38.6797 34.7111 37.2797 35.5211 36.0997C35.0411 37.2997 34.8611 38.5097 35.5211 39.7597C35.7811 40.2397 36.5011 39.8097 36.2511 39.3297C35.3311 37.6097 36.6111 35.8097 37.4211 34.2997C38.0811 33.0797 38.6011 31.8397 38.6711 30.4397V30.4597Z" fill="white"/>
<path fill-rule="evenodd" clip-rule="evenodd" d="M34.4197 26.3799C28.8697 23.0799 27.2297 32.76 28.4097 36.3C28.5797 36.81 29.3997 36.59 29.2197 36.08C28.2797 33.28 29.2697 24.2999 33.9997 27.1199C34.4697 27.3999 34.8897 26.67 34.4197 26.39V26.3799Z" fill="white"/>
<path fill-rule="evenodd" clip-rule="evenodd" d="M38.8512 31.0197C38.4012 34.0797 36.2412 37.0797 37.8812 40.1097C38.1412 40.5897 38.8712 40.1597 38.6112 39.6897C37.1512 36.9797 39.2612 33.9897 39.6612 31.2497C39.7412 30.7197 38.9312 30.4897 38.8512 31.0297V31.0197Z" fill="white"/>
<path fill-rule="evenodd" clip-rule="evenodd" d="M36.1909 25.4398C33.3209 21.7498 28.5509 25.2698 27.3909 28.6598C27.2109 29.1798 28.0309 29.3998 28.2009 28.8798C29.1709 26.0398 33.1309 22.8798 35.5909 26.0298C35.9209 26.4598 36.5209 25.8598 36.1909 25.4298V25.4398Z" fill="white"/>
<path fill-rule="evenodd" clip-rule="evenodd" d="M36.9302 24.8497C36.0602 23.2597 34.2502 22.6497 32.5202 22.6197C31.9802 22.6097 31.9802 23.4497 32.5202 23.4597C33.9502 23.4897 35.4703 23.9397 36.2003 25.2697C36.4603 25.7497 37.1902 25.3197 36.9302 24.8397V24.8497Z" fill="white"/>
<path fill-rule="evenodd" clip-rule="evenodd" d="M53.9708 39.8699C49.3508 37.2999 44.9108 32.61 39.3908 35.83C38.9208 36.1 39.3508 36.8299 39.8208 36.5599C42.0608 35.2599 44.1308 35.4 46.1108 36.17C44.1208 35.92 42.1608 36.36 40.1708 37.14C39.6708 37.34 39.8908 38.15 40.3908 37.95C42.7408 37.03 44.9008 36.59 47.3808 37.3C47.6608 37.38 48.7608 37.65 48.8008 38.05C48.8308 38.32 47.9908 38.63 47.8308 38.7C46.0908 39.42 43.6708 39.8 41.6908 39.42C43.4208 38.59 45.4608 38.64 47.3608 38.64C47.9008 38.64 47.9008 37.8 47.3608 37.8C45.0008 37.8 42.4008 37.76 40.4008 39.21C40.1008 39.43 40.1408 39.8499 40.5008 39.9799C42.0408 40.5499 43.8108 40.4 45.4008 40.18C46.6708 40.01 48.4208 39.7199 49.3508 38.7299C49.5508 38.5199 49.6408 38.2999 49.6408 38.0999C50.9608 38.9599 52.2508 39.89 53.5508 40.61C54.0308 40.87 54.4508 40.1499 53.9808 39.8799L53.9708 39.8699Z" fill="white"/>
<path fill-rule="evenodd" clip-rule="evenodd" d="M32.2112 39.0098C32.0712 38.7098 31.9712 38.4198 31.9212 38.0998C31.8912 37.9098 31.6912 37.7998 31.5112 37.7898C28.2612 37.5598 25.2612 38.7598 22.0712 39.1398C21.5412 39.1998 21.5312 40.0498 22.0712 39.9798C23.8012 39.7798 25.4712 39.3598 27.1712 38.9798C28.2212 38.7498 29.2712 38.6098 30.3512 38.5798C31.0212 38.5598 31.1412 38.6598 31.3012 39.0098C31.2712 39.0198 31.2412 39.0298 31.2212 39.0498C31.1612 38.9098 31.0412 38.8098 30.8512 38.8098C28.8412 38.8398 27.0112 39.2198 25.2412 40.2198C24.8712 40.4298 25.0312 41.0098 25.4512 41.0098C27.7612 40.9798 29.9712 40.5798 32.0712 39.5998C32.2912 39.4998 32.3112 39.2098 32.2212 39.0198L32.2112 39.0098Z" fill="white"/>
<path fill-rule="evenodd" clip-rule="evenodd" d="M51.2713 39.8698C50.9813 39.7298 50.6714 39.6298 50.3614 39.5398C50.1314 39.4698 49.8514 39.4298 49.6714 39.2698C49.2714 38.9098 48.6714 39.4998 49.0714 39.8698C49.5714 40.3098 50.2614 40.3398 50.8414 40.6098C51.3314 40.8398 51.7613 40.1098 51.2713 39.8798V39.8698Z" fill="white"/>
<path fill-rule="evenodd" clip-rule="evenodd" d="M49.6702 40.2697C49.1302 39.7897 48.3702 39.8097 47.6902 39.8097C47.1502 39.8097 47.1502 40.6497 47.6902 40.6497C48.1002 40.6497 48.7502 40.5697 49.0802 40.8597C49.4902 41.2197 50.0801 40.6297 49.6801 40.2597L49.6702 40.2697Z" fill="white"/>
<path fill-rule="evenodd" clip-rule="evenodd" d="M23.6395 40.1599C21.8595 40.4899 20.0195 40.4299 18.2495 40.8299C17.7195 40.9499 17.9395 41.7599 18.4695 41.6399C20.2395 41.2399 22.0795 41.2999 23.8595 40.9699C24.3995 40.8699 24.1695 40.0599 23.6395 40.1599Z" fill="white"/>
<path fill-rule="evenodd" clip-rule="evenodd" d="M33.4896 39.2598C33.3396 39.0898 33.3296 38.7698 33.3096 38.5598C33.2796 38.2198 33.2796 37.8798 33.2796 37.5398C33.2796 36.9998 32.4396 36.9998 32.4396 37.5398C32.4396 38.2898 32.3796 39.2498 32.8996 39.8598C33.2596 40.2698 33.8496 39.6698 33.4996 39.2598H33.4896Z" fill="white"/>
<path fill-rule="evenodd" clip-rule="evenodd" d="M50.881 60.1196C50.881 60.0696 50.881 60.0096 50.881 59.9496C50.881 58.9296 50.0509 58.0996 49.0209 58.0996H23.0609C22.0409 58.0996 21.2109 58.9296 21.2109 59.9496C21.2109 60.0096 21.2109 60.0596 21.2109 60.1196H50.861H50.881Z" fill="white"/>
</svg>
