<svg width="61" height="77" viewBox="0 0 61 77" fill="none" xmlns="http://www.w3.org/2000/svg">
<path d="M30.166 26.0941C36.4137 26.0941 41.4785 23.2072 41.4785 19.646C41.4785 16.0848 36.4137 13.1979 30.166 13.1979C23.9183 13.1979 18.8535 16.0848 18.8535 19.646C18.8535 23.2072 23.9183 26.0941 30.166 26.0941Z" fill="#C32F33"/>
<path d="M30.1667 76.2083C47.06 76.2083 60.3333 67.9125 60.3333 57.3541V19.6458C60.3333 9.08746 47.06 0.791626 30.1667 0.791626C13.2733 0.791626 0 9.08746 0 19.6458V57.3541C0 67.9125 13.2356 76.2083 30.1667 76.2083ZM30.1667 8.33329C43.4777 8.33329 52.7917 14.2912 52.7917 19.6458C52.6862 20.8093 52.3118 21.9323 51.6981 22.9264C49.134 26.6973 42.1579 30.4681 32.844 30.9206H27.6025C18.1377 30.3172 11.0485 26.7727 8.5975 22.8133C8.07123 21.9316 7.71322 20.9598 7.54167 19.9475V19.6458C7.54167 14.2912 16.8179 8.33329 30.1667 8.33329Z" fill="white"/>
</svg>
